<?xml version="1.0" encoding="UTF-8" standalone="no"?>
<!-- Created with Inkscape (http://www.inkscape.org/) -->

<svg
   xmlns:osb="http://www.openswatchbook.org/uri/2009/osb"
   xmlns:dc="http://purl.org/dc/elements/1.1/"
   xmlns:cc="http://creativecommons.org/ns#"
   xmlns:rdf="http://www.w3.org/1999/02/22-rdf-syntax-ns#"
   xmlns:svg="http://www.w3.org/2000/svg"
   xmlns="http://www.w3.org/2000/svg"
   xmlns:sodipodi="http://sodipodi.sourceforge.net/DTD/sodipodi-0.dtd"
   xmlns:inkscape="http://www.inkscape.org/namespaces/inkscape"
   version="1.1"
   id="svg10"
   width="600"
   height="300"
   viewBox="0 0 600 300"
   sodipodi:docname="LOGO_E.svg"
   inkscape:version="0.92.4 (5da689c313, 2019-01-14)">
  <metadata
     id="metadata16">
    <rdf:RDF>
      <cc:Work
         rdf:about="">
        <dc:format>image/svg+xml</dc:format>
        <dc:type
           rdf:resource="http://purl.org/dc/dcmitype/StillImage" />
        <dc:title></dc:title>
      </cc:Work>
    </rdf:RDF>
  </metadata>
  <defs
     id="defs14">
    <inkscape:perspective
       sodipodi:type="inkscape:persp3d"
       inkscape:vp_x="0 : 150 : 1"
       inkscape:vp_y="0 : 1000 : 0"
       inkscape:vp_z="600 : 150 : 1"
       inkscape:persp3d-origin="300 : 100 : 1"
       id="perspective4563" />
    <linearGradient
       id="linearGradient4545"
       osb:paint="solid">
      <stop
         style="stop-color:#000000;stop-opacity:1;"
         offset="0"
         id="stop4543" />
    </linearGradient>
  </defs>
  <sodipodi:namedview
     pagecolor="#ffffff"
     bordercolor="#666666"
     borderopacity="1"
     objecttolerance="10"
     gridtolerance="10"
     guidetolerance="10"
     inkscape:pageopacity="0"
     inkscape:pageshadow="2"
     inkscape:window-width="1366"
     inkscape:window-height="705"
     id="namedview12"
     showgrid="false"
     inkscape:zoom="1.4142136"
     inkscape:cx="272.65215"
     inkscape:cy="166.0908"
     inkscape:window-x="-8"
     inkscape:window-y="-8"
     inkscape:window-maximized="1"
     inkscape:current-layer="svg10" />
  <g
     id="g941">
    <rect
       y="65.763222"
       x="410.4928"
       height="181.78838"
       width="109.87157"
       id="rect4557"
       style="opacity:0;fill:#e9d5c4;fill-opacity:1;stroke:#d9ac8d;stroke-width:1.41489792;stroke-linecap:square;stroke-linejoin:miter;stroke-miterlimit:4;stroke-dasharray:none;stroke-dashoffset:0;stroke-opacity:1;paint-order:normal" />
    <rect
       y="65.763222"
       x="410.4928"
       height="80.852058"
       width="118.53135"
       id="rect4559"
       style="opacity:0;fill:#e9d5c4;fill-opacity:1;stroke:#d9ac8d;stroke-width:1.41489792;stroke-linecap:square;stroke-linejoin:miter;stroke-miterlimit:4;stroke-dasharray:none;stroke-dashoffset:0;stroke-opacity:1;paint-order:normal" />
    <rect
       y="65.763222"
       x="410.4928"
       height="75.70224"
       width="115.28395"
       id="rect4561"
       style="opacity:0;fill:#deaa87;fill-opacity:1;stroke:#d9ac8d;stroke-width:1.41489792;stroke-linecap:square;stroke-linejoin:miter;stroke-miterlimit:4;stroke-dasharray:none;stroke-dashoffset:0;stroke-opacity:1;paint-order:normal" />
    <path
       inkscape:connector-curvature="0"
       id="path4589"
       d="m 465.78575,238.83168 -1.11173,-0.2733 0.0679,-12.93262 c 0.0613,-11.67447 0.10113,-13.05888 0.40961,-14.23035 0.3368,-1.27904 0.33598,-1.30969 -0.0565,-2.12938 -0.219,-0.4574 -0.39818,-0.91619 -0.39818,-1.01951 0,-0.48247 -2.45851,-1.38176 -4.13604,-1.51292 -0.51421,-0.0402 -1.22908,-0.2471 -1.58862,-0.45976 -0.35952,-0.21265 -1.09147,-0.48449 -1.62652,-0.60406 -0.53507,-0.11958 -1.18923,-0.32137 -1.45369,-0.44843 -0.26446,-0.12706 -1.03946,-0.33219 -1.72221,-0.45585 -0.68276,-0.12365 -1.67193,-0.40984 -2.19816,-0.63596 -0.56116,-0.24114 -1.5377,-0.45643 -2.36165,-0.52068 -0.77267,-0.0603 -1.48308,-0.15556 -1.57869,-0.21177 -0.0956,-0.0562 -0.17516,0.005 -0.17677,0.13611 -0.002,0.18155 -0.0381,0.18567 -0.15056,0.0173 -0.0812,-0.12157 -0.44585,-0.26269 -0.81033,-0.31361 -1.07224,-0.14977 -1.31384,-0.20626 -1.4545,-0.3401 -0.0732,-0.0696 -0.25249,-0.12665 -0.3984,-0.12665 -0.14591,0 -0.58153,-0.20446 -0.96804,-0.45435 -0.3865,-0.2499 -1.11581,-0.5065 -1.62068,-0.57022 -0.50485,-0.0638 -0.96262,-0.18466 -1.01724,-0.26876 -0.17996,-0.27705 -1.76281,-0.85785 -3.18348,-1.16813 -1.2026,-0.26265 -3.92122,-0.99571 -5.77879,-1.55823 -0.82641,-0.25024 -1.58083,-0.20382 -1.91919,0.11813 -0.16539,0.15735 -0.3007,0.22659 -0.3007,0.15385 0,-0.0728 -0.17223,0.016 -0.38272,0.19728 -0.21049,0.18126 -0.38271,0.43391 -0.38271,0.56144 0,0.12754 -0.10875,0.34015 -0.24168,0.47248 -0.83325,0.82953 -1.14649,1.7692 -1.11604,3.34799 0.0153,0.79239 -0.13845,1.54327 -0.54391,2.65671 -0.59515,1.63431 -0.62694,1.98477 -0.46287,5.10389 0.0838,1.59425 0.0301,2.22594 -0.29741,3.49164 -0.21989,0.8499 -0.3998,2.11848 -0.3998,2.81907 0,1.07165 -0.0717,1.35548 -0.45147,1.78847 -0.75425,0.85984 -1.0204,1.54459 -1.15389,2.96869 -0.0702,0.74887 -0.20143,1.43179 -0.29162,1.51761 -0.0911,0.0867 -0.42901,0.0256 -0.76003,-0.13726 -0.5539,-0.27254 -0.59547,-0.36057 -0.58766,-1.24449 0.005,-0.52317 0.13987,-1.27895 0.30056,-1.67951 0.18451,-0.45995 0.38692,-2.11259 0.54933,-4.48529 0.16271,-2.37707 0.35533,-3.94863 0.52444,-4.27872 0.14699,-0.28695 0.29242,-1.09467 0.32318,-1.79493 0.0326,-0.74254 0.19465,-1.53936 0.38875,-1.91178 0.49688,-0.95334 0.74623,-2.0974 0.83879,-3.84865 0.0659,-1.24791 0.16905,-1.68209 0.50071,-2.10893 0.31794,-0.40916 0.44062,-0.88165 0.51385,-1.97899 0.0529,-0.79283 0.29887,-2.09697 0.54658,-2.8981 0.35367,-1.14385 0.47279,-2.06249 0.55481,-4.27872 0.0574,-1.55218 0.22917,-3.31374 0.38163,-3.91458 0.15246,-0.60083 0.33318,-1.99259 0.4016,-3.09277 0.0988,-1.58816 0.19532,-2.06321 0.4687,-2.30554 0.86937,-0.77066 1.11584,-1.46945 1.2106,-3.43225 0.0571,-1.18372 0.21892,-2.22378 0.4248,-2.73109 0.18288,-0.45064 0.40577,-1.4748 0.4953,-2.27592 0.1723,-1.54169 0.37159,-2.5214 0.81484,-4.00561 0.14952,-0.50071 0.28525,-1.7297 0.30161,-2.73111 0.0341,-2.09268 0.24109,-3.51219 0.66347,-4.55183 0.17823,-0.43869 0.30104,-1.3437 0.30885,-2.27591 0.0138,-1.65138 0.23667,-2.89459 0.55209,-3.08007 0.35081,-0.2063 0.59989,-1.11547 0.59989,-2.18968 0,-0.5821 0.12981,-1.35397 0.28847,-1.71528 0.80018,-1.82217 0.75795,-3.34944 -0.12673,-4.58305 -0.64695,-0.90213 -1.5386,-1.17706 -3.81735,-1.17706 -1.2452,0 -2.44407,-0.1218 -3.39272,-0.34468 -0.80688,-0.18958 -1.70361,-0.39591 -1.99273,-0.45852 -0.42521,-0.0921 -0.49228,-0.17409 -0.35096,-0.42913 0.0961,-0.17342 0.31263,-0.61749 0.4812,-0.98681 0.16857,-0.36934 0.46734,-0.7201 0.66392,-0.77948 0.66475,-0.20073 2.11606,-2.66646 2.12874,-3.61664 0.003,-0.23662 0.26915,-0.57677 0.66448,-0.84975 0.74742,-0.51608 0.83561,-0.7283 0.30269,-0.7283 -0.61388,0 -0.97243,-0.20371 -0.97243,-0.55248 0,-0.36016 -0.84828,-1.08618 -1.26908,-1.08618 -0.14337,0 -0.58384,-0.27493 -0.97882,-0.61097 -1.1065,-0.9414 -1.52539,-1.08279 -3.63761,-1.22785 -1.07947,-0.0742 -2.32808,-0.25691 -2.77467,-0.40616 -0.53431,-0.17857 -2.19043,-0.33019 -4.84268,-0.44335 -3.12384,-0.13329 -4.13556,-0.23689 -4.49688,-0.46053 -0.68767,-0.42561 -2.88425,-0.83218 -5.05878,-0.93632 -1.05246,-0.0504 -2.37737,-0.22348 -2.94422,-0.3846 l -1.03065,-0.29294 0.10396,-1.48769 c 0.0571,-0.81823 0.25169,-1.81543 0.43224,-2.21599 0.21845,-0.48464 0.3774,-1.53846 0.47513,-3.14986 0.11338,-1.86974 0.22006,-2.49854 0.46817,-2.7594 0.50657,-0.53259 0.86883,-1.95078 0.86883,-3.40126 0,-1.00069 0.12451,-1.63951 0.50004,-2.56562 0.35211,-0.8683 0.54608,-1.79876 0.65563,-3.14492 0.0856,-1.05147 0.29049,-2.69013 0.45539,-3.64146 0.20028,-1.15552 0.30025,-2.92459 0.30116,-5.32927 9.7e-4,-3.4428 0.0206,-3.62915 0.44366,-4.27872 0.69494,-1.06709 0.86288,-1.65149 0.99226,-3.453042 0.0805,-1.121114 0.26999,-2.03123 0.56858,-2.731095 0.42203,-0.989217 0.65172,-2.429008 0.66849,-4.190429 l 0.008,-0.773812 h 51.7584 51.7584 l -0.11734,0.864848 c -0.0646,0.475667 -0.33063,1.479345 -0.5913,2.230395 -0.42909,1.236301 -0.4879,1.78779 -0.62135,5.826345 -0.10954,3.31519 -0.22704,4.69035 -0.45751,5.35459 -0.17803,0.51313 -0.3101,1.49258 -0.3101,2.29976 0,1.08838 -0.11515,1.68848 -0.50976,2.65665 -0.41793,1.02541 -0.53315,1.68117 -0.63971,3.64094 -0.11148,2.05017 -0.19301,2.48732 -0.573,3.07232 -0.37775,0.58156 -0.46422,1.03654 -0.5869,3.08816 -0.10177,1.70188 -0.27032,2.77437 -0.57589,3.66438 -0.38481,1.12086 -0.44433,1.75547 -0.54495,5.81013 -0.0838,3.38035 -0.18123,4.66685 -0.37827,4.99871 -0.15682,0.2641 -0.33057,1.3986 -0.42483,2.77389 -0.13613,1.9863 -0.22684,2.42854 -0.61951,3.02038 -0.25301,0.38136 -0.57029,1.18144 -0.70504,1.77795 -0.39266,1.73808 -0.47986,1.78683 -2.95754,1.6536 -1.1577,-0.0623 -4.51602,-0.1218 -7.46292,-0.13234 -6.19602,-0.0222 -7.6826,-0.15253 -8.52794,-0.74796 -0.52382,-0.36896 -0.85317,-0.42399 -2.85787,-0.47746 -1.98191,-0.0529 -2.3813,-0.0119 -3.18755,0.32752 -0.50866,0.21408 -1.10994,0.34301 -1.34169,0.28767 -0.30777,-0.0735 -0.45259,-0.003 -0.54218,0.26622 -0.0672,0.20157 -0.35773,0.48235 -0.64551,0.62395 -0.54831,0.26979 -0.98049,0.96234 -0.98049,1.5712 0,0.19742 -0.2317,0.78055 -0.51488,1.29586 -0.4572,0.83196 -0.52828,1.20827 -0.63444,3.35906 -0.1277,2.5871 -0.0518,2.37984 -1.36726,3.73292 -0.37751,0.38831 -0.68353,0.52184 -1.19597,0.52184 -0.37876,0 -0.68893,0.0615 -0.68926,0.13656 -3.9e-4,0.0751 0.95542,4.76577 2.1239,10.4237 1.77396,8.58974 2.12045,10.5425 2.09989,11.83476 -0.0167,1.05445 0.10351,2.0118 0.37745,3.00421 0.22112,0.80112 0.43515,2.23938 0.47563,3.19611 0.0814,1.92518 0.1109,2.055 0.76201,3.35853 0.36086,0.72244 0.47294,1.30502 0.54289,2.82214 0.0675,1.46393 0.18934,2.12503 0.5201,2.82213 0.32185,0.67833 0.45547,1.37213 0.52423,2.72193 0.0736,1.44457 0.19272,2.01629 0.58811,2.82214 0.47373,0.96551 0.49597,1.15266 0.49881,4.19686 0.002,1.75245 0.0679,3.28147 0.14735,3.39781 0.29635,0.4342 0.90808,3.78724 0.90808,4.97744 0,0.90435 -0.0895,1.33941 -0.33488,1.62751 -0.32105,0.37699 -0.36051,0.38103 -0.95663,0.0979 -0.69552,-0.33029 -0.76081,-0.5146 -0.86919,-2.45361 -0.0583,-1.04285 -0.20133,-1.59181 -0.60526,-2.32298 -0.29091,-0.52659 -0.60562,-1.00255 -0.69937,-1.05767 -0.0937,-0.0551 -0.17218,-0.85328 -0.1743,-1.77367 -0.002,-0.92038 -0.0861,-2.20599 -0.18649,-2.8569 -0.10044,-0.65092 -0.27524,-2.65827 -0.38843,-4.4608 -0.16905,-2.69234 -0.30283,-3.58607 -0.74942,-5.00702 -0.299,-0.95133 -0.59824,-2.40715 -0.66496,-3.23515 -0.11095,-1.37676 -0.55979,-2.77327 -0.89136,-2.77327 -0.1848,0 -0.33324,-0.88493 -0.47139,-2.81016 -0.0724,-1.00908 -0.2478,-1.87318 -0.46199,-2.27592 -0.18989,-0.35707 -0.40567,-0.91552 -0.47949,-1.24097 -0.0738,-0.32545 -0.21859,-0.59174 -0.32169,-0.59174 -0.10309,0 -0.13873,-0.075 -0.0792,-0.16666 0.17704,-0.27255 -0.84967,-1.29016 -1.29866,-1.28713 -0.99857,0.006 -1.25556,0.73459 -1.2847,3.63867 -0.0206,2.05035 -0.33587,4.60954 -0.87482,7.10086 -0.28486,1.31673 -0.32898,2.44404 -0.29575,7.55605 l 0.0391,6.00842 0.5861,1.113 c 0.57959,1.10063 0.5854,1.14006 0.52267,3.55042 -0.0587,2.25645 -0.10463,2.51742 -0.61833,3.51462 -0.5087,0.98749 -0.56792,1.31343 -0.71129,3.91458 -0.0861,1.56056 -0.28661,3.65672 -0.44574,4.65812 -0.22788,1.43405 -0.29011,3.7229 -0.29304,10.7771 -0.003,6.96492 -0.057,8.98793 -0.24292,9.09828 -0.36609,0.2172 -0.90018,0.18959 -2.11635,-0.10939 z m -1.21006,-36.58499 c 0.23808,-0.21281 0.52555,-0.38692 0.6388,-0.38692 0.35314,0 0.46093,-1.18669 0.63672,-7.00983 0.0937,-3.10435 0.26245,-6.17684 0.37495,-6.82775 0.11529,-0.66705 0.27617,-6.22859 0.3687,-12.74514 0.0903,-6.35891 0.25865,-12.25808 0.37415,-13.10927 0.40781,-3.00544 0.58228,-5.95701 0.39106,-6.61593 -0.10188,-0.3511 -0.44139,-0.89926 -0.75447,-1.21815 -0.35993,-0.36662 -0.56923,-0.77358 -0.56923,-1.10677 0,-0.30131 -0.10244,-0.52607 -0.2392,-0.52488 -0.13157,9.2e-4 -2.03027,-0.13134 -4.21936,-0.29442 -2.18909,-0.16307 -4.01659,-0.26185 -4.0611,-0.21948 -0.0445,0.0423 -0.20004,1.01072 -0.34562,2.15192 -0.16523,1.29536 -0.3539,2.10319 -0.50217,2.15021 -0.46961,0.14895 -1.49681,1.13409 -1.69493,1.62552 -0.11121,0.27585 -0.23861,1.40281 -0.28314,2.50435 -0.0621,1.53546 -0.18563,2.25772 -0.52964,3.09525 -0.43841,1.06737 -0.44898,1.23449 -0.46065,7.28293 -0.0116,6.04252 -0.0226,6.21661 -0.45937,7.28293 -0.40514,0.98915 -0.4509,1.41095 -0.48398,4.4608 -0.0357,3.29284 -0.049,3.39489 -0.59414,4.55184 -0.53751,1.14081 -0.56008,1.30162 -0.62614,4.4608 -0.0554,2.64917 -0.13951,3.47157 -0.43883,4.29084 -0.45913,1.25669 -0.45866,1.33789 0.0133,2.26548 0.27438,0.53929 0.62081,0.86665 1.21694,1.14993 0.45835,0.2178 0.96391,0.39601 1.12347,0.39601 0.27564,0 2.18435,0.7252 2.85081,1.08315 0.17185,0.0923 0.97462,0.29795 1.78393,0.45701 0.8093,0.15906 1.71256,0.4588 2.00723,0.66609 1.0502,0.73878 3.73763,0.8488 4.48193,0.18348 z m -18.90475,-5.75579 c 0.25102,-0.27795 0.50851,-0.80185 0.57219,-1.1642 0.0637,-0.36236 0.23749,-1.10947 0.38623,-1.66024 0.15507,-0.57424 0.29911,-2.20522 0.33766,-3.82354 0.0598,-2.50766 0.12456,-2.9743 0.58164,-4.18768 0.45454,-1.20665 0.51318,-1.62231 0.5039,-3.57203 -0.0109,-2.30187 0.20003,-3.73027 0.70833,-4.79563 0.22435,-0.47021 0.33841,-1.62223 0.45067,-4.55183 0.1391,-3.63018 0.18509,-3.9901 0.61747,-4.83266 0.443,-0.86328 0.47352,-1.13862 0.5901,-5.32298 0.11366,-4.08023 0.0973,-4.43681 -0.21768,-4.73391 -0.32627,-0.30778 -0.32643,-0.44714 -0.004,-3.31153 0.18509,-1.64464 0.31558,-3.0083 0.28996,-3.03037 -0.0594,-0.0512 -10.86498,-1.1713 -11.29926,-1.1713 -0.17843,0 -0.32442,0.11424 -0.32442,0.25386 0,0.13962 -0.23681,0.49694 -0.52624,0.79405 -0.77564,0.79623 -1.19591,2.13162 -1.19639,3.80148 -3.8e-4,1.24195 -0.0773,1.57097 -0.57949,2.47744 -0.57559,1.03897 -0.57942,1.0654 -0.6329,4.36976 -0.0567,3.501 -0.1112,3.90734 -0.62438,4.65254 -0.21093,0.30631 -0.34889,0.99302 -0.40697,2.02566 -0.0484,0.85924 -0.22122,1.93095 -0.38421,2.38158 -0.16298,0.45063 -0.33865,1.55518 -0.39036,2.45456 -0.0715,1.24224 -0.193,1.78919 -0.50584,2.27591 -0.78247,1.21736 -0.93067,1.74101 -1.05738,3.73594 -0.0801,1.26073 -0.24492,2.23892 -0.44491,2.64006 -0.5728,1.14894 -0.70404,2.20724 -0.58176,4.69135 0.1196,2.42989 -0.0452,3.80743 -0.60458,5.05608 -0.21568,0.48137 -0.20018,0.64077 0.12004,1.23466 0.20223,0.37506 0.32095,0.75386 0.26384,0.84179 -0.11876,0.18284 1.72183,1.10333 2.20618,1.10333 0.17611,0 0.8545,0.1624 1.50751,0.36089 0.65302,0.1985 1.97159,0.49037 2.93017,0.64863 0.95858,0.15824 1.91482,0.37527 2.12498,0.48229 0.60058,0.30583 2.19468,0.4914 3.72817,0.43401 1.26526,-0.0474 1.45089,-0.10299 1.86179,-0.55797 z"
       style="opacity:0;fill:#784421;fill-opacity:1;stroke:#d9ac8d;stroke-width:0.27998617;stroke-linecap:square;stroke-linejoin:miter;stroke-miterlimit:4;stroke-dasharray:none;stroke-dashoffset:0;stroke-opacity:1;paint-order:normal" />
    <path
       inkscape:connector-curvature="0"
       id="path4591"
       d="m 465.78575,238.83168 -1.11173,-0.2733 0.0679,-12.93262 c 0.0613,-11.67447 0.10113,-13.05888 0.40961,-14.23035 0.3368,-1.27904 0.33598,-1.30969 -0.0565,-2.12938 -0.219,-0.4574 -0.39818,-0.91619 -0.39818,-1.01951 0,-0.48247 -2.45851,-1.38176 -4.13604,-1.51292 -0.51421,-0.0402 -1.22908,-0.2471 -1.58862,-0.45976 -0.35952,-0.21265 -1.09147,-0.48449 -1.62652,-0.60406 -0.53507,-0.11958 -1.18923,-0.32137 -1.45369,-0.44843 -0.26446,-0.12706 -1.03946,-0.33219 -1.72221,-0.45585 -0.68276,-0.12365 -1.67193,-0.40984 -2.19816,-0.63596 -0.56116,-0.24114 -1.5377,-0.45643 -2.36165,-0.52068 -0.77267,-0.0603 -1.48308,-0.15556 -1.57869,-0.21177 -0.0956,-0.0562 -0.17516,0.005 -0.17677,0.13611 -0.002,0.18155 -0.0381,0.18567 -0.15056,0.0173 -0.0812,-0.12157 -0.44585,-0.26269 -0.81033,-0.31361 -1.07224,-0.14977 -1.31384,-0.20626 -1.4545,-0.3401 -0.0732,-0.0696 -0.25249,-0.12665 -0.3984,-0.12665 -0.14591,0 -0.58153,-0.20446 -0.96804,-0.45435 -0.3865,-0.2499 -1.11581,-0.5065 -1.62068,-0.57022 -0.50485,-0.0638 -0.96262,-0.18466 -1.01724,-0.26876 -0.17996,-0.27705 -1.76281,-0.85785 -3.18348,-1.16813 -1.2026,-0.26265 -3.92122,-0.99571 -5.77879,-1.55823 -0.82641,-0.25024 -1.58083,-0.20382 -1.91919,0.11813 -0.16539,0.15735 -0.3007,0.22659 -0.3007,0.15385 0,-0.0728 -0.17223,0.016 -0.38272,0.19728 -0.21049,0.18126 -0.38271,0.43391 -0.38271,0.56144 0,0.12754 -0.10875,0.34015 -0.24168,0.47248 -0.83325,0.82953 -1.14649,1.7692 -1.11604,3.34799 0.0153,0.79239 -0.13845,1.54327 -0.54391,2.65671 -0.59515,1.63431 -0.62694,1.98477 -0.46287,5.10389 0.0838,1.59425 0.0301,2.22594 -0.29741,3.49164 -0.21989,0.8499 -0.3998,2.11848 -0.3998,2.81907 0,1.07165 -0.0717,1.35548 -0.45147,1.78847 -0.75425,0.85984 -1.0204,1.54459 -1.15389,2.96869 -0.0702,0.74887 -0.20143,1.43179 -0.29162,1.51761 -0.0911,0.0867 -0.42901,0.0256 -0.76003,-0.13726 -0.5539,-0.27254 -0.59547,-0.36057 -0.58766,-1.24449 0.005,-0.52317 0.13987,-1.27895 0.30056,-1.67951 0.18451,-0.45995 0.38692,-2.11259 0.54933,-4.48529 0.16271,-2.37707 0.35533,-3.94863 0.52444,-4.27872 0.14699,-0.28695 0.29242,-1.09467 0.32318,-1.79493 0.0326,-0.74254 0.19465,-1.53936 0.38875,-1.91178 0.49688,-0.95334 0.74623,-2.0974 0.83879,-3.84865 0.0659,-1.24791 0.16905,-1.68209 0.50071,-2.10893 0.31794,-0.40916 0.44062,-0.88165 0.51385,-1.97899 0.0529,-0.79283 0.29887,-2.09697 0.54658,-2.8981 0.35367,-1.14385 0.47279,-2.06249 0.55481,-4.27872 0.0574,-1.55218 0.22917,-3.31374 0.38163,-3.91458 0.15246,-0.60083 0.33318,-1.99259 0.4016,-3.09277 0.0988,-1.58816 0.19532,-2.06321 0.4687,-2.30554 0.86937,-0.77066 1.11584,-1.46945 1.2106,-3.43225 0.0571,-1.18372 0.21892,-2.22378 0.4248,-2.73109 0.18288,-0.45064 0.40577,-1.4748 0.4953,-2.27592 0.1723,-1.54169 0.37159,-2.5214 0.81484,-4.00561 0.14952,-0.50071 0.28525,-1.7297 0.30161,-2.73111 0.0341,-2.09268 0.24109,-3.51219 0.66347,-4.55183 0.17823,-0.43869 0.30104,-1.3437 0.30885,-2.27591 0.0138,-1.65138 0.23667,-2.89459 0.55209,-3.08007 0.35081,-0.2063 0.59989,-1.11547 0.59989,-2.18968 0,-0.5821 0.12981,-1.35397 0.28847,-1.71528 0.80018,-1.82217 0.75795,-3.34944 -0.12673,-4.58305 -0.64695,-0.90213 -1.5386,-1.17706 -3.81735,-1.17706 -1.2452,0 -2.44407,-0.1218 -3.39272,-0.34468 -0.80688,-0.18958 -1.70361,-0.39591 -1.99273,-0.45852 -0.42521,-0.0921 -0.49228,-0.17409 -0.35096,-0.42913 0.0961,-0.17342 0.31263,-0.61749 0.4812,-0.98681 0.16857,-0.36934 0.46734,-0.7201 0.66392,-0.77948 0.66475,-0.20073 2.11606,-2.66646 2.12874,-3.61664 0.003,-0.23662 0.26915,-0.57677 0.66448,-0.84975 0.74742,-0.51608 0.83561,-0.7283 0.30269,-0.7283 -0.61388,0 -0.97243,-0.20371 -0.97243,-0.55248 0,-0.36016 -0.84828,-1.08618 -1.26908,-1.08618 -0.14337,0 -0.58384,-0.27493 -0.97882,-0.61097 -1.1065,-0.9414 -1.52539,-1.08279 -3.63761,-1.22785 -1.07947,-0.0742 -2.32808,-0.25691 -2.77467,-0.40616 -0.53431,-0.17857 -2.19043,-0.33019 -4.84268,-0.44335 -3.12384,-0.13329 -4.13556,-0.23689 -4.49688,-0.46053 -0.68767,-0.42561 -2.88425,-0.83218 -5.05878,-0.93632 -1.05246,-0.0504 -2.37737,-0.22348 -2.94422,-0.3846 l -1.03065,-0.29294 0.10396,-1.48769 c 0.0571,-0.81823 0.25169,-1.81543 0.43224,-2.21599 0.21845,-0.48464 0.3774,-1.53846 0.47513,-3.14986 0.11338,-1.86974 0.22006,-2.49854 0.46817,-2.7594 0.50657,-0.53259 0.86883,-1.95078 0.86883,-3.40126 0,-1.00069 0.12451,-1.63951 0.50004,-2.56562 0.35211,-0.8683 0.54608,-1.79876 0.65563,-3.14492 0.0856,-1.05147 0.29049,-2.69013 0.45539,-3.64146 0.20028,-1.15552 0.30025,-2.92459 0.30116,-5.32927 9.7e-4,-3.4428 0.0206,-3.62915 0.44366,-4.27872 0.69494,-1.06709 0.86288,-1.65149 0.99226,-3.453042 0.0805,-1.121114 0.26999,-2.03123 0.56858,-2.731095 0.42203,-0.989217 0.65172,-2.429008 0.66849,-4.190429 l 0.008,-0.773812 h 51.7584 51.7584 l -0.11734,0.864848 c -0.0646,0.475667 -0.33063,1.479345 -0.5913,2.230395 -0.42909,1.236301 -0.4879,1.78779 -0.62135,5.826345 -0.10954,3.31519 -0.22704,4.69035 -0.45751,5.35459 -0.17803,0.51313 -0.3101,1.49258 -0.3101,2.29976 0,1.08838 -0.11515,1.68848 -0.50976,2.65665 -0.41793,1.02541 -0.53315,1.68117 -0.63971,3.64094 -0.11148,2.05017 -0.19301,2.48732 -0.573,3.07232 -0.37775,0.58156 -0.46422,1.03654 -0.5869,3.08816 -0.10177,1.70188 -0.27032,2.77437 -0.57589,3.66438 -0.38481,1.12086 -0.44433,1.75547 -0.54495,5.81013 -0.0838,3.38035 -0.18123,4.66685 -0.37827,4.99871 -0.15682,0.2641 -0.33057,1.3986 -0.42483,2.77389 -0.13613,1.9863 -0.22684,2.42854 -0.61951,3.02038 -0.25301,0.38136 -0.57029,1.18144 -0.70504,1.77795 -0.39266,1.73808 -0.47986,1.78683 -2.95754,1.6536 -1.1577,-0.0623 -4.51602,-0.1218 -7.46292,-0.13234 -6.19602,-0.0222 -7.6826,-0.15253 -8.52794,-0.74796 -0.52382,-0.36896 -0.85317,-0.42399 -2.85787,-0.47746 -1.98191,-0.0529 -2.3813,-0.0119 -3.18755,0.32752 -0.50866,0.21408 -1.10994,0.34301 -1.34169,0.28767 -0.30777,-0.0735 -0.45259,-0.003 -0.54218,0.26622 -0.0672,0.20157 -0.35773,0.48235 -0.64551,0.62395 -0.54831,0.26979 -0.98049,0.96234 -0.98049,1.5712 0,0.19742 -0.2317,0.78055 -0.51488,1.29586 -0.4572,0.83196 -0.52828,1.20827 -0.63444,3.35906 -0.1277,2.5871 -0.0518,2.37984 -1.36726,3.73292 -0.37751,0.38831 -0.68353,0.52184 -1.19597,0.52184 -0.37876,0 -0.68893,0.0615 -0.68926,0.13656 -3.9e-4,0.0751 0.95542,4.76577 2.1239,10.4237 1.77396,8.58974 2.12045,10.5425 2.09989,11.83476 -0.0167,1.05445 0.10351,2.0118 0.37745,3.00421 0.22112,0.80112 0.43515,2.23938 0.47563,3.19611 0.0814,1.92518 0.1109,2.055 0.76201,3.35853 0.36086,0.72244 0.47294,1.30502 0.54289,2.82214 0.0675,1.46393 0.18934,2.12503 0.5201,2.82213 0.32185,0.67833 0.45547,1.37213 0.52423,2.72193 0.0736,1.44457 0.19272,2.01629 0.58811,2.82214 0.47373,0.96551 0.49597,1.15266 0.49881,4.19686 0.002,1.75245 0.0679,3.28147 0.14735,3.39781 0.29635,0.4342 0.90808,3.78724 0.90808,4.97744 0,0.90435 -0.0895,1.33941 -0.33488,1.62751 -0.32105,0.37699 -0.36051,0.38103 -0.95663,0.0979 -0.69552,-0.33029 -0.76081,-0.5146 -0.86919,-2.45361 -0.0583,-1.04285 -0.20133,-1.59181 -0.60526,-2.32298 -0.29091,-0.52659 -0.60562,-1.00255 -0.69937,-1.05767 -0.0937,-0.0551 -0.17218,-0.85328 -0.1743,-1.77367 -0.002,-0.92038 -0.0861,-2.20599 -0.18649,-2.8569 -0.10044,-0.65092 -0.27524,-2.65827 -0.38843,-4.4608 -0.16905,-2.69234 -0.30283,-3.58607 -0.74942,-5.00702 -0.299,-0.95133 -0.59824,-2.40715 -0.66496,-3.23515 -0.11095,-1.37676 -0.55979,-2.77327 -0.89136,-2.77327 -0.1848,0 -0.33324,-0.88493 -0.47139,-2.81016 -0.0724,-1.00908 -0.2478,-1.87318 -0.46199,-2.27592 -0.18989,-0.35707 -0.40567,-0.91552 -0.47949,-1.24097 -0.0738,-0.32545 -0.21859,-0.59174 -0.32169,-0.59174 -0.10309,0 -0.13873,-0.075 -0.0792,-0.16666 0.17704,-0.27255 -0.84967,-1.29016 -1.29866,-1.28713 -0.99857,0.006 -1.25556,0.73459 -1.2847,3.63867 -0.0206,2.05035 -0.33587,4.60954 -0.87482,7.10086 -0.28486,1.31673 -0.32898,2.44404 -0.29575,7.55605 l 0.0391,6.00842 0.5861,1.113 c 0.57959,1.10063 0.5854,1.14006 0.52267,3.55042 -0.0587,2.25645 -0.10463,2.51742 -0.61833,3.51462 -0.5087,0.98749 -0.56792,1.31343 -0.71129,3.91458 -0.0861,1.56056 -0.28661,3.65672 -0.44574,4.65812 -0.22788,1.43405 -0.29011,3.7229 -0.29304,10.7771 -0.003,6.96492 -0.057,8.98793 -0.24292,9.09828 -0.36609,0.2172 -0.90018,0.18959 -2.11635,-0.10939 z m -1.21006,-36.58499 c 0.23808,-0.21281 0.52555,-0.38692 0.6388,-0.38692 0.35314,0 0.46093,-1.18669 0.63672,-7.00983 0.0937,-3.10435 0.26245,-6.17684 0.37495,-6.82775 0.11529,-0.66705 0.27617,-6.22859 0.3687,-12.74514 0.0903,-6.35891 0.25865,-12.25808 0.37415,-13.10927 0.40781,-3.00544 0.58228,-5.95701 0.39106,-6.61593 -0.10188,-0.3511 -0.44139,-0.89926 -0.75447,-1.21815 -0.35993,-0.36662 -0.56923,-0.77358 -0.56923,-1.10677 0,-0.30131 -0.10244,-0.52607 -0.2392,-0.52488 -0.13157,9.2e-4 -2.03027,-0.13134 -4.21936,-0.29442 -2.18909,-0.16307 -4.01659,-0.26185 -4.0611,-0.21948 -0.0445,0.0423 -0.20004,1.01072 -0.34562,2.15192 -0.16523,1.29536 -0.3539,2.10319 -0.50217,2.15021 -0.46961,0.14895 -1.49681,1.13409 -1.69493,1.62552 -0.11121,0.27585 -0.23861,1.40281 -0.28314,2.50435 -0.0621,1.53546 -0.18563,2.25772 -0.52964,3.09525 -0.43841,1.06737 -0.44898,1.23449 -0.46065,7.28293 -0.0116,6.04252 -0.0226,6.21661 -0.45937,7.28293 -0.40514,0.98915 -0.4509,1.41095 -0.48398,4.4608 -0.0357,3.29284 -0.049,3.39489 -0.59414,4.55184 -0.53751,1.14081 -0.56008,1.30162 -0.62614,4.4608 -0.0554,2.64917 -0.13951,3.47157 -0.43883,4.29084 -0.45913,1.25669 -0.45866,1.33789 0.0133,2.26548 0.27438,0.53929 0.62081,0.86665 1.21694,1.14993 0.45835,0.2178 0.96391,0.39601 1.12347,0.39601 0.27564,0 2.18435,0.7252 2.85081,1.08315 0.17185,0.0923 0.97462,0.29795 1.78393,0.45701 0.8093,0.15906 1.71256,0.4588 2.00723,0.66609 1.0502,0.73878 3.73763,0.8488 4.48193,0.18348 z m -18.90475,-5.75579 c 0.25102,-0.27795 0.50851,-0.80185 0.57219,-1.1642 0.0637,-0.36236 0.23749,-1.10947 0.38623,-1.66024 0.15507,-0.57424 0.29911,-2.20522 0.33766,-3.82354 0.0598,-2.50766 0.12456,-2.9743 0.58164,-4.18768 0.45454,-1.20665 0.51318,-1.62231 0.5039,-3.57203 -0.0109,-2.30187 0.20003,-3.73027 0.70833,-4.79563 0.22435,-0.47021 0.33841,-1.62223 0.45067,-4.55183 0.1391,-3.63018 0.18509,-3.9901 0.61747,-4.83266 0.443,-0.86328 0.47352,-1.13862 0.5901,-5.32298 0.11366,-4.08023 0.0973,-4.43681 -0.21768,-4.73391 -0.32627,-0.30778 -0.32643,-0.44714 -0.004,-3.31153 0.18509,-1.64464 0.31558,-3.0083 0.28996,-3.03037 -0.0594,-0.0512 -10.86498,-1.1713 -11.29926,-1.1713 -0.17843,0 -0.32442,0.11424 -0.32442,0.25386 0,0.13962 -0.23681,0.49694 -0.52624,0.79405 -0.77564,0.79623 -1.19591,2.13162 -1.19639,3.80148 -3.8e-4,1.24195 -0.0773,1.57097 -0.57949,2.47744 -0.57559,1.03897 -0.57942,1.0654 -0.6329,4.36976 -0.0567,3.501 -0.1112,3.90734 -0.62438,4.65254 -0.21093,0.30631 -0.34889,0.99302 -0.40697,2.02566 -0.0484,0.85924 -0.22122,1.93095 -0.38421,2.38158 -0.16298,0.45063 -0.33865,1.55518 -0.39036,2.45456 -0.0715,1.24224 -0.193,1.78919 -0.50584,2.27591 -0.78247,1.21736 -0.93067,1.74101 -1.05738,3.73594 -0.0801,1.26073 -0.24492,2.23892 -0.44491,2.64006 -0.5728,1.14894 -0.70404,2.20724 -0.58176,4.69135 0.1196,2.42989 -0.0452,3.80743 -0.60458,5.05608 -0.21568,0.48137 -0.20018,0.64077 0.12004,1.23466 0.20223,0.37506 0.32095,0.75386 0.26384,0.84179 -0.11876,0.18284 1.72183,1.10333 2.20618,1.10333 0.17611,0 0.8545,0.1624 1.50751,0.36089 0.65302,0.1985 1.97159,0.49037 2.93017,0.64863 0.95858,0.15824 1.91482,0.37527 2.12498,0.48229 0.60058,0.30583 2.19468,0.4914 3.72817,0.43401 1.26526,-0.0474 1.45089,-0.10299 1.86179,-0.55797 z"
       style="opacity:0;fill:#784421;fill-opacity:1;stroke:#d9ac8d;stroke-width:0.27998617;stroke-linecap:square;stroke-linejoin:miter;stroke-miterlimit:4;stroke-dasharray:none;stroke-dashoffset:0;stroke-opacity:1;paint-order:normal" />
    <path
       inkscape:connector-curvature="0"
       id="path4593"
       d="m 465.78575,238.83168 -1.11173,-0.2733 0.0679,-12.93262 c 0.0613,-11.67447 0.10113,-13.05888 0.40961,-14.23035 0.3368,-1.27904 0.33598,-1.30969 -0.0565,-2.12938 -0.219,-0.4574 -0.39818,-0.91619 -0.39818,-1.01951 0,-0.48247 -2.45851,-1.38176 -4.13604,-1.51292 -0.51421,-0.0402 -1.22908,-0.2471 -1.58862,-0.45976 -0.35952,-0.21265 -1.09147,-0.48449 -1.62652,-0.60406 -0.53507,-0.11958 -1.18923,-0.32137 -1.45369,-0.44843 -0.26446,-0.12706 -1.03946,-0.33219 -1.72221,-0.45585 -0.68276,-0.12365 -1.67193,-0.40984 -2.19816,-0.63596 -0.56116,-0.24114 -1.5377,-0.45643 -2.36165,-0.52068 -0.77267,-0.0603 -1.48308,-0.15556 -1.57869,-0.21177 -0.0956,-0.0562 -0.17516,0.005 -0.17677,0.13611 -0.002,0.18155 -0.0381,0.18567 -0.15056,0.0173 -0.0812,-0.12157 -0.44585,-0.26269 -0.81033,-0.31361 -1.07224,-0.14977 -1.31384,-0.20626 -1.4545,-0.3401 -0.0732,-0.0696 -0.25249,-0.12665 -0.3984,-0.12665 -0.14591,0 -0.58153,-0.20446 -0.96804,-0.45435 -0.3865,-0.2499 -1.11581,-0.5065 -1.62068,-0.57022 -0.50485,-0.0638 -0.96262,-0.18466 -1.01724,-0.26876 -0.17996,-0.27705 -1.76281,-0.85785 -3.18348,-1.16813 -1.2026,-0.26265 -3.92122,-0.99571 -5.77879,-1.55823 -0.82641,-0.25024 -1.58083,-0.20382 -1.91919,0.11813 -0.16539,0.15735 -0.3007,0.22659 -0.3007,0.15385 0,-0.0728 -0.17223,0.016 -0.38272,0.19728 -0.21049,0.18126 -0.38271,0.43391 -0.38271,0.56144 0,0.12754 -0.10875,0.34015 -0.24168,0.47248 -0.83325,0.82953 -1.14649,1.7692 -1.11604,3.34799 0.0153,0.79239 -0.13845,1.54327 -0.54391,2.65671 -0.59515,1.63431 -0.62694,1.98477 -0.46287,5.10389 0.0838,1.59425 0.0301,2.22594 -0.29741,3.49164 -0.21989,0.8499 -0.3998,2.11848 -0.3998,2.81907 0,1.07165 -0.0717,1.35548 -0.45147,1.78847 -0.75425,0.85984 -1.0204,1.54459 -1.15389,2.96869 -0.0702,0.74887 -0.20143,1.43179 -0.29162,1.51761 -0.0911,0.0867 -0.42901,0.0256 -0.76003,-0.13726 -0.5539,-0.27254 -0.59547,-0.36057 -0.58766,-1.24449 0.005,-0.52317 0.13987,-1.27895 0.30056,-1.67951 0.18451,-0.45995 0.38692,-2.11259 0.54933,-4.48529 0.16271,-2.37707 0.35533,-3.94863 0.52444,-4.27872 0.14699,-0.28695 0.29242,-1.09467 0.32318,-1.79493 0.0326,-0.74254 0.19465,-1.53936 0.38875,-1.91178 0.49688,-0.95334 0.74623,-2.0974 0.83879,-3.84865 0.0659,-1.24791 0.16905,-1.68209 0.50071,-2.10893 0.31794,-0.40916 0.44062,-0.88165 0.51385,-1.97899 0.0529,-0.79283 0.29887,-2.09697 0.54658,-2.8981 0.35367,-1.14385 0.47279,-2.06249 0.55481,-4.27872 0.0574,-1.55218 0.22917,-3.31374 0.38163,-3.91458 0.15246,-0.60083 0.33318,-1.99259 0.4016,-3.09277 0.0988,-1.58816 0.19532,-2.06321 0.4687,-2.30554 0.86937,-0.77066 1.11584,-1.46945 1.2106,-3.43225 0.0571,-1.18372 0.21892,-2.22378 0.4248,-2.73109 0.18288,-0.45064 0.40577,-1.4748 0.4953,-2.27592 0.1723,-1.54169 0.37159,-2.5214 0.81484,-4.00561 0.14952,-0.50071 0.28525,-1.7297 0.30161,-2.73111 0.0341,-2.09268 0.24109,-3.51219 0.66347,-4.55183 0.17823,-0.43869 0.30104,-1.3437 0.30885,-2.27591 0.0138,-1.65138 0.23667,-2.89459 0.55209,-3.08007 0.35081,-0.2063 0.59989,-1.11547 0.59989,-2.18968 0,-0.5821 0.12981,-1.35397 0.28847,-1.71528 0.80018,-1.82217 0.75795,-3.34944 -0.12673,-4.58305 -0.64695,-0.90213 -1.5386,-1.17706 -3.81735,-1.17706 -1.2452,0 -2.44407,-0.1218 -3.39272,-0.34468 -0.80688,-0.18958 -1.70361,-0.39591 -1.99273,-0.45852 -0.42521,-0.0921 -0.49228,-0.17409 -0.35096,-0.42913 0.0961,-0.17342 0.31263,-0.61749 0.4812,-0.98681 0.16857,-0.36934 0.46734,-0.7201 0.66392,-0.77948 0.66475,-0.20073 2.11606,-2.66646 2.12874,-3.61664 0.003,-0.23662 0.26915,-0.57677 0.66448,-0.84975 0.74742,-0.51608 0.83561,-0.7283 0.30269,-0.7283 -0.61388,0 -0.97243,-0.20371 -0.97243,-0.55248 0,-0.36016 -0.84828,-1.08618 -1.26908,-1.08618 -0.14337,0 -0.58384,-0.27493 -0.97882,-0.61097 -1.1065,-0.9414 -1.52539,-1.08279 -3.63761,-1.22785 -1.07947,-0.0742 -2.32808,-0.25691 -2.77467,-0.40616 -0.53431,-0.17857 -2.19043,-0.33019 -4.84268,-0.44335 -3.12384,-0.13329 -4.13556,-0.23689 -4.49688,-0.46053 -0.68767,-0.42561 -2.88425,-0.83218 -5.05878,-0.93632 -1.05246,-0.0504 -2.37737,-0.22348 -2.94422,-0.3846 l -1.03065,-0.29294 0.10396,-1.48769 c 0.0571,-0.81823 0.25169,-1.81543 0.43224,-2.21599 0.21845,-0.48464 0.3774,-1.53846 0.47513,-3.14986 0.11338,-1.86974 0.22006,-2.49854 0.46817,-2.7594 0.50657,-0.53259 0.86883,-1.95078 0.86883,-3.40126 0,-1.00069 0.12451,-1.63951 0.50004,-2.56562 0.35211,-0.8683 0.54608,-1.79876 0.65563,-3.14492 0.0856,-1.05147 0.29049,-2.69013 0.45539,-3.64146 0.20028,-1.15552 0.30025,-2.92459 0.30116,-5.32927 9.7e-4,-3.4428 0.0206,-3.62915 0.44366,-4.27872 0.69494,-1.06709 0.86288,-1.65149 0.99226,-3.453042 0.0805,-1.121114 0.26999,-2.03123 0.56858,-2.731095 0.42203,-0.989217 0.65172,-2.429008 0.66849,-4.190429 l 0.008,-0.773812 h 51.7584 51.7584 l -0.11734,0.864848 c -0.0646,0.475667 -0.33063,1.479345 -0.5913,2.230395 -0.42909,1.236301 -0.4879,1.78779 -0.62135,5.826345 -0.10954,3.31519 -0.22704,4.69035 -0.45751,5.35459 -0.17803,0.51313 -0.3101,1.49258 -0.3101,2.29976 0,1.08838 -0.11515,1.68848 -0.50976,2.65665 -0.41793,1.02541 -0.53315,1.68117 -0.63971,3.64094 -0.11148,2.05017 -0.19301,2.48732 -0.573,3.07232 -0.37775,0.58156 -0.46422,1.03654 -0.5869,3.08816 -0.10177,1.70188 -0.27032,2.77437 -0.57589,3.66438 -0.38481,1.12086 -0.44433,1.75547 -0.54495,5.81013 -0.0838,3.38035 -0.18123,4.66685 -0.37827,4.99871 -0.15682,0.2641 -0.33057,1.3986 -0.42483,2.77389 -0.13613,1.9863 -0.22684,2.42854 -0.61951,3.02038 -0.25301,0.38136 -0.57029,1.18144 -0.70504,1.77795 -0.39266,1.73808 -0.47986,1.78683 -2.95754,1.6536 -1.1577,-0.0623 -4.51602,-0.1218 -7.46292,-0.13234 -6.19602,-0.0222 -7.6826,-0.15253 -8.52794,-0.74796 -0.52382,-0.36896 -0.85317,-0.42399 -2.85787,-0.47746 -1.98191,-0.0529 -2.3813,-0.0119 -3.18755,0.32752 -0.50866,0.21408 -1.10994,0.34301 -1.34169,0.28767 -0.30777,-0.0735 -0.45259,-0.003 -0.54218,0.26622 -0.0672,0.20157 -0.35773,0.48235 -0.64551,0.62395 -0.54831,0.26979 -0.98049,0.96234 -0.98049,1.5712 0,0.19742 -0.2317,0.78055 -0.51488,1.29586 -0.4572,0.83196 -0.52828,1.20827 -0.63444,3.35906 -0.1277,2.5871 -0.0518,2.37984 -1.36726,3.73292 -0.37751,0.38831 -0.68353,0.52184 -1.19597,0.52184 -0.37876,0 -0.68893,0.0615 -0.68926,0.13656 -3.9e-4,0.0751 0.95542,4.76577 2.1239,10.4237 1.77396,8.58974 2.12045,10.5425 2.09989,11.83476 -0.0167,1.05445 0.10351,2.0118 0.37745,3.00421 0.22112,0.80112 0.43515,2.23938 0.47563,3.19611 0.0814,1.92518 0.1109,2.055 0.76201,3.35853 0.36086,0.72244 0.47294,1.30502 0.54289,2.82214 0.0675,1.46393 0.18934,2.12503 0.5201,2.82213 0.32185,0.67833 0.45547,1.37213 0.52423,2.72193 0.0736,1.44457 0.19272,2.01629 0.58811,2.82214 0.47373,0.96551 0.49597,1.15266 0.49881,4.19686 0.002,1.75245 0.0679,3.28147 0.14735,3.39781 0.29635,0.4342 0.90808,3.78724 0.90808,4.97744 0,0.90435 -0.0895,1.33941 -0.33488,1.62751 -0.32105,0.37699 -0.36051,0.38103 -0.95663,0.0979 -0.69552,-0.33029 -0.76081,-0.5146 -0.86919,-2.45361 -0.0583,-1.04285 -0.20133,-1.59181 -0.60526,-2.32298 -0.29091,-0.52659 -0.60562,-1.00255 -0.69937,-1.05767 -0.0937,-0.0551 -0.17218,-0.85328 -0.1743,-1.77367 -0.002,-0.92038 -0.0861,-2.20599 -0.18649,-2.8569 -0.10044,-0.65092 -0.27524,-2.65827 -0.38843,-4.4608 -0.16905,-2.69234 -0.30283,-3.58607 -0.74942,-5.00702 -0.299,-0.95133 -0.59824,-2.40715 -0.66496,-3.23515 -0.11095,-1.37676 -0.55979,-2.77327 -0.89136,-2.77327 -0.1848,0 -0.33324,-0.88493 -0.47139,-2.81016 -0.0724,-1.00908 -0.2478,-1.87318 -0.46199,-2.27592 -0.18989,-0.35707 -0.40567,-0.91552 -0.47949,-1.24097 -0.0738,-0.32545 -0.21859,-0.59174 -0.32169,-0.59174 -0.10309,0 -0.13873,-0.075 -0.0792,-0.16666 0.17704,-0.27255 -0.84967,-1.29016 -1.29866,-1.28713 -0.99857,0.006 -1.25556,0.73459 -1.2847,3.63867 -0.0206,2.05035 -0.33587,4.60954 -0.87482,7.10086 -0.28486,1.31673 -0.32898,2.44404 -0.29575,7.55605 l 0.0391,6.00842 0.5861,1.113 c 0.57959,1.10063 0.5854,1.14006 0.52267,3.55042 -0.0587,2.25645 -0.10463,2.51742 -0.61833,3.51462 -0.5087,0.98749 -0.56792,1.31343 -0.71129,3.91458 -0.0861,1.56056 -0.28661,3.65672 -0.44574,4.65812 -0.22788,1.43405 -0.29011,3.7229 -0.29304,10.7771 -0.003,6.96492 -0.057,8.98793 -0.24292,9.09828 -0.36609,0.2172 -0.90018,0.18959 -2.11635,-0.10939 z m -1.21006,-36.58499 c 0.23808,-0.21281 0.52555,-0.38692 0.6388,-0.38692 0.35314,0 0.46093,-1.18669 0.63672,-7.00983 0.0937,-3.10435 0.26245,-6.17684 0.37495,-6.82775 0.11529,-0.66705 0.27617,-6.22859 0.3687,-12.74514 0.0903,-6.35891 0.25865,-12.25808 0.37415,-13.10927 0.40781,-3.00544 0.58228,-5.95701 0.39106,-6.61593 -0.10188,-0.3511 -0.44139,-0.89926 -0.75447,-1.21815 -0.35993,-0.36662 -0.56923,-0.77358 -0.56923,-1.10677 0,-0.30131 -0.10244,-0.52607 -0.2392,-0.52488 -0.13157,9.2e-4 -2.03027,-0.13134 -4.21936,-0.29442 -2.18909,-0.16307 -4.01659,-0.26185 -4.0611,-0.21948 -0.0445,0.0423 -0.20004,1.01072 -0.34562,2.15192 -0.16523,1.29536 -0.3539,2.10319 -0.50217,2.15021 -0.46961,0.14895 -1.49681,1.13409 -1.69493,1.62552 -0.11121,0.27585 -0.23861,1.40281 -0.28314,2.50435 -0.0621,1.53546 -0.18563,2.25772 -0.52964,3.09525 -0.43841,1.06737 -0.44898,1.23449 -0.46065,7.28293 -0.0116,6.04252 -0.0226,6.21661 -0.45937,7.28293 -0.40514,0.98915 -0.4509,1.41095 -0.48398,4.4608 -0.0357,3.29284 -0.049,3.39489 -0.59414,4.55184 -0.53751,1.14081 -0.56008,1.30162 -0.62614,4.4608 -0.0554,2.64917 -0.13951,3.47157 -0.43883,4.29084 -0.45913,1.25669 -0.45866,1.33789 0.0133,2.26548 0.27438,0.53929 0.62081,0.86665 1.21694,1.14993 0.45835,0.2178 0.96391,0.39601 1.12347,0.39601 0.27564,0 2.18435,0.7252 2.85081,1.08315 0.17185,0.0923 0.97462,0.29795 1.78393,0.45701 0.8093,0.15906 1.71256,0.4588 2.00723,0.66609 1.0502,0.73878 3.73763,0.8488 4.48193,0.18348 z m -18.90475,-5.75579 c 0.25102,-0.27795 0.50851,-0.80185 0.57219,-1.1642 0.0637,-0.36236 0.23749,-1.10947 0.38623,-1.66024 0.15507,-0.57424 0.29911,-2.20522 0.33766,-3.82354 0.0598,-2.50766 0.12456,-2.9743 0.58164,-4.18768 0.45454,-1.20665 0.51318,-1.62231 0.5039,-3.57203 -0.0109,-2.30187 0.20003,-3.73027 0.70833,-4.79563 0.22435,-0.47021 0.33841,-1.62223 0.45067,-4.55183 0.1391,-3.63018 0.18509,-3.9901 0.61747,-4.83266 0.443,-0.86328 0.47352,-1.13862 0.5901,-5.32298 0.11366,-4.08023 0.0973,-4.43681 -0.21768,-4.73391 -0.32627,-0.30778 -0.32643,-0.44714 -0.004,-3.31153 0.18509,-1.64464 0.31558,-3.0083 0.28996,-3.03037 -0.0594,-0.0512 -10.86498,-1.1713 -11.29926,-1.1713 -0.17843,0 -0.32442,0.11424 -0.32442,0.25386 0,0.13962 -0.23681,0.49694 -0.52624,0.79405 -0.77564,0.79623 -1.19591,2.13162 -1.19639,3.80148 -3.8e-4,1.24195 -0.0773,1.57097 -0.57949,2.47744 -0.57559,1.03897 -0.57942,1.0654 -0.6329,4.36976 -0.0567,3.501 -0.1112,3.90734 -0.62438,4.65254 -0.21093,0.30631 -0.34889,0.99302 -0.40697,2.02566 -0.0484,0.85924 -0.22122,1.93095 -0.38421,2.38158 -0.16298,0.45063 -0.33865,1.55518 -0.39036,2.45456 -0.0715,1.24224 -0.193,1.78919 -0.50584,2.27591 -0.78247,1.21736 -0.93067,1.74101 -1.05738,3.73594 -0.0801,1.26073 -0.24492,2.23892 -0.44491,2.64006 -0.5728,1.14894 -0.70404,2.20724 -0.58176,4.69135 0.1196,2.42989 -0.0452,3.80743 -0.60458,5.05608 -0.21568,0.48137 -0.20018,0.64077 0.12004,1.23466 0.20223,0.37506 0.32095,0.75386 0.26384,0.84179 -0.11876,0.18284 1.72183,1.10333 2.20618,1.10333 0.17611,0 0.8545,0.1624 1.50751,0.36089 0.65302,0.1985 1.97159,0.49037 2.93017,0.64863 0.95858,0.15824 1.91482,0.37527 2.12498,0.48229 0.60058,0.30583 2.19468,0.4914 3.72817,0.43401 1.26526,-0.0474 1.45089,-0.10299 1.86179,-0.55797 z"
       style="opacity:0;fill:#784421;fill-opacity:1;stroke:#d9ac8d;stroke-width:0.27998617;stroke-linecap:square;stroke-linejoin:miter;stroke-miterlimit:4;stroke-dasharray:none;stroke-dashoffset:0;stroke-opacity:1;paint-order:normal" />
    <path
       inkscape:connector-curvature="0"
       id="path4595"
       d="m 474.54028,154.53275 c 0.59569,-0.62629 0.85551,-1.68489 0.86417,-3.52096 0.008,-1.57818 0.0733,-1.91534 0.58247,-2.98388 0.64125,-1.34562 0.71944,-1.88259 0.27414,-1.88259 -0.33788,0 -0.24111,-0.52032 0.22859,-1.22899 l 0.27152,-0.40967 h -24.57172 -24.57172 l 0.37991,-0.98129 c 0.28419,-0.73406 0.59201,-1.13251 1.22176,-1.58146 0.46302,-0.33009 0.84186,-0.66186 0.84186,-0.73726 0,-0.0753 -0.37737,-0.19092 -0.8386,-0.25672 -0.5923,-0.0846 -0.90579,-0.23912 -1.06738,-0.52641 -0.12584,-0.22371 -0.67415,-0.62748 -1.2185,-0.89725 -0.54434,-0.26978 -1.25755,-0.65327 -1.58491,-0.85223 -0.3604,-0.21902 -1.21805,-0.43602 -2.17397,-0.55008 -0.86832,-0.10359 -2.27963,-0.34065 -3.13625,-0.52679 -0.96805,-0.21036 -2.71621,-0.37937 -4.61921,-0.4466 -1.88399,-0.0665 -3.83459,-0.25404 -5.07095,-0.48741 -1.1051,-0.2086 -2.69814,-0.45568 -3.54011,-0.54909 -3.2318,-0.35854 -5.278,-0.89533 -5.6872,-1.49197 -0.29126,-0.42468 0.0674,-2.74999 0.62654,-4.06211 0.42683,-1.00162 0.59094,-1.77027 0.72905,-3.4147 0.1408,-1.67652 0.27719,-2.30353 0.64958,-2.98614 0.38895,-0.71298 0.48908,-1.21418 0.57269,-2.86684 0.0699,-1.38141 0.21911,-2.28526 0.48098,-2.91317 0.22742,-0.54533 0.42455,-1.57499 0.49161,-2.56783 0.0616,-0.9116 0.29977,-2.42737 0.52934,-3.36835 0.33421,-1.36992 0.44208,-2.54551 0.54121,-5.89859 0.1189,-4.02121 0.14245,-4.21653 0.59244,-4.913 0.37683,-0.58322 0.49162,-1.06475 0.58596,-2.457991 0.0799,-1.179163 0.27997,-2.168923 0.62646,-3.098233 0.32947,-0.883691 0.54826,-1.927719 0.62,-2.958692 l 0.11088,-1.593142 h 52.25053 52.25053 l -0.11789,1.046921 c -0.0648,0.575808 -0.25923,1.538522 -0.43198,2.139365 -0.61231,2.129764 -0.74757,3.110609 -0.65279,4.733904 0.0927,1.588658 -0.0168,2.442628 -1.55414,12.107888 -0.0398,0.25035 -0.18067,0.56405 -0.31299,0.69711 -0.1524,0.15325 -0.23677,0.75397 -0.23016,1.63866 0.0123,1.64675 -0.21681,2.99364 -0.7617,4.47736 -0.2963,0.80687 -0.39122,1.49368 -0.37756,2.73203 0.011,1.00328 -0.10602,2.11051 -0.29755,2.81378 -0.17368,0.63777 -0.27246,1.26704 -0.21948,1.39838 0.053,0.13134 0.006,0.26759 -0.10547,0.30279 -0.11098,0.0352 -0.23713,0.74456 -0.28033,1.57637 -0.0432,0.8318 -0.59286,4.76157 -1.22146,8.7328 -0.62861,3.97124 -1.16498,7.38431 -1.19194,7.58459 -0.0648,0.48119 -0.80067,1.1504 -1.43037,1.30077 -0.27718,0.0661 -1.80199,0.0232 -3.38845,-0.0955 -1.58647,-0.11874 -4.26226,-0.2089 -5.9462,-0.20035 -1.68394,0.008 -4.09505,-0.0738 -5.358,-0.18305 -3.08419,-0.26676 -3.3978,-0.30183 -3.73146,-0.41731 -1.02541,-0.3549 -1.76319,-0.41763 -4.49689,-0.38234 l -3.06171,0.0396 -0.51607,5.43135 c -0.28383,2.98724 -0.52064,5.53376 -0.52623,5.65894 -0.007,0.15637 -0.37872,0.22758 -1.18796,0.22758 -1.15224,0 -1.17054,-0.007 -0.84292,-0.35208 z"
       style="opacity:0;fill:#784421;fill-opacity:1;stroke:#d9ac8d;stroke-width:0.27998617;stroke-linecap:square;stroke-linejoin:miter;stroke-miterlimit:4;stroke-dasharray:none;stroke-dashoffset:0;stroke-opacity:1;paint-order:normal" />
    <path
       inkscape:connector-curvature="0"
       id="path4597"
       d="m 465.78097,238.91034 c -0.50883,-0.13304 -0.9766,-0.29085 -1.03948,-0.35069 -0.19394,-0.18451 -0.0435,-24.29151 0.16423,-26.31686 0.10757,-1.04882 0.22531,-1.93522 0.26165,-1.9698 0.0364,-0.0346 -0.0836,-0.56932 -0.26653,-1.18832 -0.26354,-0.89179 -0.41856,-1.13753 -0.74667,-1.18363 -0.22775,-0.032 -0.41409,-0.13345 -0.41409,-0.22544 0,-0.092 -0.34635,-0.21995 -0.76967,-0.28436 -0.42332,-0.0644 -0.8159,-0.18828 -0.8724,-0.27527 -0.0565,-0.087 -0.44424,-0.15815 -0.86165,-0.15815 -0.4174,0 -1.20884,-0.15837 -1.75876,-0.35194 -0.54991,-0.19356 -1.81789,-0.64345 -2.81773,-0.99974 -0.99984,-0.3563 -2.38054,-0.76022 -3.06823,-0.89758 -0.68768,-0.13737 -1.50574,-0.37326 -1.81789,-0.52421 -0.31215,-0.15095 -1.29949,-0.3325 -2.19409,-0.40344 -1.65688,-0.13138 -5.20906,-0.95175 -5.32768,-1.23041 -0.0892,-0.20936 -1.33119,-0.69073 -1.78226,-0.69073 -0.20113,0 -0.8133,-0.21581 -1.36037,-0.47959 -0.85717,-0.41329 -3.16044,-1.08773 -4.73332,-1.38601 -0.26311,-0.0499 -1.41696,-0.3538 -2.5641,-0.67534 -1.58708,-0.44485 -2.25042,-0.55191 -2.77468,-0.44779 -0.37893,0.0753 -0.75354,0.12306 -0.83248,0.1062 -0.0789,-0.0168 -0.14351,0.13805 -0.14351,0.34425 0,0.20618 -0.0741,0.33131 -0.16466,0.27807 -0.0905,-0.0533 -0.31891,0.22867 -0.50745,0.6265 -0.18855,0.39784 -0.40465,0.72334 -0.48024,0.72334 -0.23719,0 -0.56605,1.49137 -0.64237,2.91317 -0.0403,0.75105 -0.2213,1.73425 -0.40216,2.18488 -0.60417,1.50527 -0.84758,2.86632 -0.64034,3.58047 0.10487,0.36141 0.15321,1.52666 0.10742,2.58945 -0.0851,1.97526 -0.16558,2.47794 -0.48958,3.05849 -0.10144,0.18175 -0.24834,1.14796 -0.32644,2.14714 -0.12523,1.60188 -0.20494,1.89255 -0.67411,2.45799 -0.62004,0.7473 -0.94415,1.75509 -0.94565,2.94043 -9.7e-4,1.08688 -0.33,1.38126 -1.11227,0.99636 -0.31055,-0.1528 -0.61244,-0.39636 -0.67087,-0.54124 -0.16461,-0.40816 0.0727,-2.13659 0.39071,-2.8453 0.19042,-0.4244 0.33814,-1.7015 0.44229,-3.82354 0.086,-1.75245 0.2554,-3.55498 0.37643,-4.00561 0.12103,-0.45063 0.26687,-1.26996 0.32406,-1.82073 0.10842,-1.04387 0.39148,-2.12192 0.88797,-3.38182 0.16076,-0.40797 0.34466,-1.51406 0.40865,-2.45799 0.0862,-1.27142 0.23558,-1.95219 0.57638,-2.6266 0.31992,-0.63311 0.49678,-1.38171 0.58071,-2.45799 0.0663,-0.8512 0.296,-1.99826 0.51026,-2.54903 0.30399,-0.78142 0.42371,-1.70135 0.54498,-4.18769 0.0855,-1.75245 0.25283,-3.47304 0.3719,-3.82353 0.11907,-0.3505 0.28983,-1.6396 0.37946,-2.86469 0.16026,-2.19071 0.17403,-2.23972 0.83444,-2.97384 0.62613,-0.696 0.67899,-0.85301 0.7826,-2.32442 0.13243,-1.88059 0.4556,-3.69582 0.70072,-3.93583 0.0972,-0.0951 0.17665,-0.46988 0.17665,-0.83277 0,-0.89412 0.54305,-3.91082 0.87712,-4.87249 0.14906,-0.42909 0.27173,-1.33036 0.2726,-2.0028 0.002,-1.78369 0.33236,-4.23875 0.69336,-5.15715 0.17312,-0.44043 0.37333,-1.70466 0.44585,-2.81534 0.0987,-1.51203 0.23621,-2.22151 0.55001,-2.8383 0.23244,-0.45685 0.49391,-1.46255 0.5883,-2.26277 0.0934,-0.79224 0.32273,-1.99577 0.50952,-2.67451 0.3206,-1.165 0.32156,-1.28859 0.017,-2.20774 -0.3395,-1.02475 -1.17542,-2.0046 -1.58314,-1.85573 -0.13257,0.0484 -0.27246,-0.002 -0.31087,-0.11137 -0.0914,-0.26091 -2.16435,-0.42527 -2.32104,-0.18403 -0.0783,0.12064 -0.39424,0.12476 -0.92157,0.0121 -0.44129,-0.0943 -0.97999,-0.15172 -1.1971,-0.12752 -0.21713,0.0242 -0.82532,-0.0891 -1.35156,-0.25172 -0.52623,-0.16265 -1.25817,-0.3521 -1.62653,-0.421 -0.36836,-0.0689 -0.73054,-0.1592 -0.80483,-0.20067 -0.2185,-0.12198 0.87064,-2.05694 1.2184,-2.16459 0.17483,-0.0541 0.54872,-0.38637 0.83084,-0.73833 0.57168,-0.71313 1.49707,-2.74378 1.3521,-2.96697 -0.0514,-0.079 0.2456,-0.38218 0.65982,-0.67372 0.86235,-0.60694 0.94261,-0.802 0.33161,-0.80596 -0.53613,-0.004 -0.7316,-0.13511 -1.16744,-0.78623 -0.18993,-0.28375 -0.66156,-0.64136 -1.04804,-0.79467 -0.38649,-0.15333 -1.02048,-0.55152 -1.40889,-0.88488 -0.73642,-0.63206 -1.06222,-0.71936 -3.37219,-0.90355 -0.76964,-0.0614 -1.80297,-0.23586 -2.29628,-0.38775 -0.58407,-0.17986 -2.23175,-0.32916 -4.72405,-0.42809 -3.28238,-0.13028 -4.03142,-0.21596 -5.26231,-0.60192 -1.7883,-0.56075 -2.39129,-0.66134 -4.62562,-0.7717 -1.87799,-0.0927 -2.06193,-0.12432 -3.36354,-0.57738 l -0.81326,-0.28309 v -1.18222 c 0,-0.82578 0.15154,-1.57315 0.50261,-2.47878 0.38288,-0.98766 0.53646,-1.81705 0.6447,-3.48142 0.12179,-1.87281 0.21318,-2.30307 0.63993,-3.01236 0.42095,-0.69966 0.5151,-1.12842 0.60948,-2.77575 0.079,-1.37939 0.22545,-2.1931 0.50143,-2.78673 0.24783,-0.53308 0.45457,-1.54468 0.56763,-2.77748 0.0978,-1.06647 0.2611,-2.30773 0.36289,-2.75836 0.38543,-1.70636 0.57254,-4.00961 0.57254,-7.04791 v -3.14291 l 0.59828,-1.08598 c 0.49996,-0.9075 0.62125,-1.37923 0.73803,-2.870315 0.0969,-1.23759 0.29474,-2.167544 0.64554,-3.035004 0.3749,-0.927029 0.50646,-1.586657 0.5084,-2.549026 9.7e-4,-0.714093 0.0545,-1.482702 0.118,-1.708018 l 0.11538,-0.409665 h 51.73974 51.73975 l -0.003,0.773812 c -0.002,0.425596 -0.22751,1.429274 -0.50208,2.230396 -0.4544,1.325882 -0.51276,1.840558 -0.65023,5.73531 -0.0966,2.73777 -0.2599,4.73773 -0.45331,5.55324 -0.16626,0.70098 -0.29006,1.85655 -0.27509,2.56791 0.015,0.71138 -0.0307,1.38251 -0.10142,1.49141 -0.57073,0.87866 -1.07671,2.72203 -1.07671,3.92262 0,1.68859 -0.2998,3.23506 -0.80642,4.15988 -0.31399,0.57316 -0.42863,1.2451 -0.54824,3.21305 -0.0982,1.61541 -0.29109,2.93543 -0.54988,3.76284 -0.33757,1.07926 -0.39626,1.73476 -0.38308,4.27872 0.0157,3.02623 -0.17983,4.96819 -0.6691,6.64568 -0.14603,0.5007 -0.31555,1.68146 -0.37672,2.62391 -0.0819,1.26226 -0.23394,1.96863 -0.57721,2.68206 -0.2563,0.53269 -0.52335,1.33235 -0.59343,1.77703 -0.0789,0.50096 -0.30074,0.96343 -0.58301,1.21575 -0.45154,0.40363 -0.47894,0.40535 -3.10007,0.1964 -1.45449,-0.11595 -5.02534,-0.21081 -7.93525,-0.21081 -5.55022,0 -6.77009,-0.1216 -7.96577,-0.79401 -0.60054,-0.33772 -0.95002,-0.38442 -2.63033,-0.35148 -1.2286,0.0241 -2.21285,0.14273 -2.68942,0.32415 -0.4134,0.15739 -1.04828,0.26319 -1.41085,0.23511 -0.5537,-0.0429 -0.66883,0.0132 -0.7193,0.35003 -0.0331,0.22057 -0.21913,0.44908 -0.41355,0.50779 -0.47765,0.14426 -0.90484,0.80211 -1.07226,1.65127 -0.0761,0.38587 -0.35453,1.15091 -0.61878,1.70008 -0.40554,0.84287 -0.49459,1.34821 -0.57126,3.24201 l -0.0908,2.2435 -0.75575,0.81694 c -0.68082,0.73592 -0.83955,0.81693 -1.60061,0.81693 -0.55261,0 -0.84205,0.0788 -0.83678,0.22759 0.005,0.12517 1.02128,5.12033 2.25965,11.10035 1.43133,6.91175 2.19207,10.97398 2.08818,11.1506 -0.18452,0.31372 0.10183,2.10516 0.54577,3.41445 0.15999,0.47186 0.32512,1.70471 0.36697,2.73969 0.063,1.55638 0.16539,2.06921 0.59254,2.96563 0.4169,0.87493 0.54089,1.46991 0.64327,3.08666 0.0769,1.21444 0.24802,2.25365 0.43472,2.64007 0.46773,0.96798 0.63759,1.77782 0.68746,3.27732 0.0346,1.04134 0.18589,1.68975 0.63708,2.7311 0.58747,1.35585 0.59086,1.38275 0.47738,3.78972 -0.10037,2.12882 -0.0571,2.69145 0.35526,4.61781 0.28313,1.32272 0.47705,2.87471 0.48847,3.90916 0.0255,2.3154 -0.32058,2.71793 -1.50347,1.74847 -0.57513,-0.47135 -0.62144,-0.60284 -0.7903,-2.24371 -0.16445,-1.5981 -0.48393,-2.51797 -1.16524,-3.35505 -0.0815,-0.10013 -0.20597,-1.12429 -0.27657,-2.27591 -0.0706,-1.15161 -0.20976,-2.79028 -0.3092,-3.64147 -0.0994,-0.85119 -0.26565,-2.73743 -0.36933,-4.19166 -0.14618,-2.05017 -0.30085,-2.94985 -0.68865,-4.00561 -0.3361,-0.91501 -0.54442,-1.96272 -0.63517,-3.19442 -0.10912,-1.48107 -0.21839,-1.94422 -0.56936,-2.4132 -0.59462,-0.79456 -0.77161,-1.4772 -0.80489,-3.10449 -0.0288,-1.40823 -0.57573,-3.11869 -0.99723,-3.11869 -0.10984,0 -0.15239,-0.045 -0.0946,-0.1 0.21506,-0.20463 -0.25592,-1.57839 -0.69591,-2.02988 -0.35545,-0.36475 -0.56666,-0.44116 -0.95981,-0.34727 -0.67933,0.16223 -0.87124,0.73258 -0.88343,2.62557 -0.0118,1.83778 -0.36525,5.10268 -0.92994,8.5911 -0.36142,2.23256 -0.3867,2.94226 -0.27575,7.73813 l 0.12217,5.28012 0.56795,1.08151 c 0.55877,1.06401 0.56672,1.11995 0.49139,3.45939 -0.0681,2.11437 -0.13415,2.49657 -0.59616,3.44887 -0.44226,0.91157 -0.54937,1.46711 -0.71962,3.7325 -0.11001,1.46384 -0.3698,3.93066 -0.57732,5.48183 -0.34563,2.5836 -0.36639,3.48548 -0.24719,10.74614 0.0984,5.993 0.0745,8.02482 -0.0982,8.33169 -0.26624,0.47333 -0.93504,0.5102 -2.38378,0.13139 z m -1.37114,-36.68643 c 0.19049,-0.20028 0.49277,-0.36414 0.67174,-0.36414 0.44289,0 0.56856,-1.39948 0.57228,-6.37257 0.003,-3.61898 0.0869,-4.82697 0.59668,-8.55745 0.10262,-0.75105 0.26165,-6.60926 0.35339,-13.01824 0.0918,-6.40899 0.259,-12.47203 0.37169,-13.47343 0.48291,-4.29133 0.48424,-4.50074 0.034,-5.34039 -0.22908,-0.42724 -0.54178,-0.82255 -0.6949,-0.87845 -0.17765,-0.0649 -0.27838,-0.35815 -0.27838,-0.81046 0,-0.44679 -0.0884,-0.70805 -0.2392,-0.70673 -0.13157,9.2e-4 -2.03027,-0.13134 -4.21936,-0.29442 -2.18909,-0.16307 -4.01303,-0.26521 -4.05322,-0.22698 -0.0402,0.0383 -0.16784,0.8057 -0.28369,1.70548 -0.36134,2.80647 -0.35748,2.79425 -0.98078,3.10094 -0.96975,0.47715 -1.32047,1.24599 -1.32507,2.90478 -0.004,1.49792 -0.31585,3.24077 -0.84464,4.7227 -0.24921,0.69844 -0.30089,1.85734 -0.30089,6.74755 0,5.63819 -0.0187,5.94767 -0.41463,6.86691 -0.358,0.83115 -0.43171,1.45994 -0.53977,4.60409 -0.11255,3.27473 -0.17083,3.74232 -0.57875,4.64287 -0.40605,0.89644 -0.46668,1.37356 -0.57838,4.55183 -0.098,2.78874 -0.19784,3.71781 -0.46525,4.3306 -0.32372,0.74177 -0.32422,0.82064 -0.0102,1.60301 0.37982,0.9463 1.29458,1.61481 2.4913,1.82065 0.42098,0.0724 1.33873,0.40518 2.03943,0.7395 0.70069,0.33432 1.90222,0.73359 2.67006,0.88727 0.76783,0.15369 1.54153,0.40468 1.71931,0.55777 0.47684,0.41059 1.26239,0.58825 2.67883,0.60581 1.03214,0.0128 1.32509,-0.0507 1.60836,-0.3485 z m -19.30824,-5.39704 c 0.91169,-0.20611 1.53724,-2.80769 1.68717,-7.01669 0.0779,-2.18773 0.17514,-2.84172 0.60397,-4.06391 0.4388,-1.25062 0.52991,-1.89425 0.64426,-4.55183 0.10773,-2.50352 0.20152,-3.21707 0.49059,-3.73251 0.29173,-0.52016 0.38302,-1.23944 0.49687,-3.91457 0.17303,-4.06565 0.31614,-5.09164 0.82434,-5.90973 0.37118,-0.59751 0.40519,-0.96607 0.46276,-5.01467 0.0495,-3.48215 0.009,-4.43727 -0.19935,-4.70213 -0.22203,-0.28221 -0.20993,-0.78846 0.0802,-3.35438 0.18789,-1.66212 0.32065,-3.04008 0.29504,-3.06215 -0.0594,-0.0512 -10.86498,-1.1713 -11.29925,-1.1713 -0.19254,0 -0.32443,0.14236 -0.32443,0.35018 0,0.1926 -0.20966,0.58727 -0.46592,0.87703 -0.7204,0.81461 -1.02799,1.80737 -1.13192,3.65339 -0.0783,1.39098 -0.19,1.86362 -0.62384,2.64006 -0.52127,0.93291 -0.5287,0.99276 -0.54645,4.40515 -0.0172,3.31208 -0.0374,3.48933 -0.47424,4.16235 -0.35768,0.55111 -0.48642,1.08206 -0.59598,2.45799 -0.0769,0.96527 -0.32104,2.32679 -0.54265,3.02561 -0.24899,0.78515 -0.40292,1.77229 -0.40292,2.5838 0,0.72227 -0.0877,1.36483 -0.195,1.42789 -0.10724,0.063 -0.40863,0.51582 -0.66975,1.0061 -0.39283,0.73762 -0.47475,1.154 -0.47475,2.41321 0,1.20219 -0.10914,1.80571 -0.51965,2.87371 -0.49239,1.28098 -0.51774,1.50458 -0.48322,4.26103 0.0292,2.33092 -0.0363,3.19411 -0.32937,4.34309 -0.20119,0.78869 -0.41086,1.47685 -0.46593,1.52925 -0.0551,0.0524 0.033,0.34026 0.19574,0.63968 0.16273,0.29942 0.25481,0.6938 0.20463,0.87641 -0.0658,0.23925 0.0587,0.38175 0.44565,0.51008 0.2953,0.0979 0.58728,0.13015 0.64885,0.0716 0.0616,-0.0586 0.11194,-0.0215 0.11194,0.0823 0,0.16503 0.40847,0.30023 2.00925,0.66501 0.21049,0.0479 0.98548,0.24841 1.72221,0.44542 0.73672,0.19701 1.78166,0.41018 2.32208,0.47371 0.54041,0.0635 1.26369,0.24894 1.60728,0.41204 1.0952,0.51985 3.33167,0.6606 4.89188,0.30787 z"
       style="opacity:0;fill:#784421;fill-opacity:1;stroke:#d9ac8d;stroke-width:0.27998617;stroke-linecap:square;stroke-linejoin:miter;stroke-miterlimit:4;stroke-dasharray:none;stroke-dashoffset:0;stroke-opacity:1;paint-order:normal" />
    <path
       inkscape:connector-curvature="0"
       id="path4599"
       d="m 465.78575,238.83168 -1.11173,-0.2733 0.0679,-12.93262 c 0.0613,-11.67447 0.10113,-13.05888 0.40961,-14.23035 0.3368,-1.27904 0.33598,-1.30969 -0.0565,-2.12938 -0.219,-0.4574 -0.39818,-0.91619 -0.39818,-1.01951 0,-0.48247 -2.45851,-1.38176 -4.13604,-1.51292 -0.51421,-0.0402 -1.22908,-0.2471 -1.58862,-0.45976 -0.35952,-0.21265 -1.09147,-0.48449 -1.62652,-0.60406 -0.53507,-0.11958 -1.18923,-0.32137 -1.45369,-0.44843 -0.26446,-0.12706 -1.03946,-0.33219 -1.72221,-0.45585 -0.68276,-0.12365 -1.67193,-0.40984 -2.19816,-0.63596 -0.56116,-0.24114 -1.5377,-0.45643 -2.36165,-0.52068 -0.77267,-0.0603 -1.48308,-0.15556 -1.57869,-0.21177 -0.0956,-0.0562 -0.17516,0.005 -0.17677,0.13611 -0.002,0.18155 -0.0381,0.18567 -0.15056,0.0173 -0.0812,-0.12157 -0.44585,-0.26269 -0.81033,-0.31361 -1.07224,-0.14977 -1.31384,-0.20626 -1.4545,-0.3401 -0.0732,-0.0696 -0.25249,-0.12665 -0.3984,-0.12665 -0.14591,0 -0.58153,-0.20446 -0.96804,-0.45435 -0.3865,-0.2499 -1.11581,-0.5065 -1.62068,-0.57022 -0.50485,-0.0638 -0.96262,-0.18466 -1.01724,-0.26876 -0.17996,-0.27705 -1.76281,-0.85785 -3.18348,-1.16813 -1.2026,-0.26265 -3.92122,-0.99571 -5.77879,-1.55823 -0.82641,-0.25024 -1.58083,-0.20382 -1.91919,0.11813 -0.16539,0.15735 -0.3007,0.22659 -0.3007,0.15385 0,-0.0728 -0.17223,0.016 -0.38272,0.19728 -0.21049,0.18126 -0.38271,0.43391 -0.38271,0.56144 0,0.12754 -0.10875,0.34015 -0.24168,0.47248 -0.83325,0.82953 -1.14649,1.7692 -1.11604,3.34799 0.0153,0.79239 -0.13845,1.54327 -0.54391,2.65671 -0.59515,1.63431 -0.62694,1.98477 -0.46287,5.10389 0.0838,1.59425 0.0301,2.22594 -0.29741,3.49164 -0.21989,0.8499 -0.3998,2.11848 -0.3998,2.81907 0,1.07165 -0.0717,1.35548 -0.45147,1.78847 -0.75425,0.85984 -1.0204,1.54459 -1.15389,2.96869 -0.0702,0.74887 -0.20143,1.43179 -0.29162,1.51761 -0.0911,0.0867 -0.42901,0.0256 -0.76003,-0.13726 -0.5539,-0.27254 -0.59547,-0.36057 -0.58766,-1.24449 0.005,-0.52317 0.13987,-1.27895 0.30056,-1.67951 0.18451,-0.45995 0.38692,-2.11259 0.54933,-4.48529 0.16271,-2.37707 0.35533,-3.94863 0.52444,-4.27872 0.14699,-0.28695 0.29242,-1.09467 0.32318,-1.79493 0.0326,-0.74254 0.19465,-1.53936 0.38875,-1.91178 0.49688,-0.95334 0.74623,-2.0974 0.83879,-3.84865 0.0659,-1.24791 0.16905,-1.68209 0.50071,-2.10893 0.31794,-0.40916 0.44062,-0.88165 0.51385,-1.97899 0.0529,-0.79283 0.29887,-2.09697 0.54658,-2.8981 0.35367,-1.14385 0.47279,-2.06249 0.55481,-4.27872 0.0574,-1.55218 0.22917,-3.31374 0.38163,-3.91458 0.15246,-0.60083 0.33318,-1.99259 0.4016,-3.09277 0.0988,-1.58816 0.19532,-2.06321 0.4687,-2.30554 0.86937,-0.77066 1.11584,-1.46945 1.2106,-3.43225 0.0571,-1.18372 0.21892,-2.22378 0.4248,-2.73109 0.18288,-0.45064 0.40577,-1.4748 0.4953,-2.27592 0.1723,-1.54169 0.37159,-2.5214 0.81484,-4.00561 0.14952,-0.50071 0.28525,-1.7297 0.30161,-2.73111 0.0341,-2.09268 0.24109,-3.51219 0.66347,-4.55183 0.17823,-0.43869 0.30104,-1.3437 0.30885,-2.27591 0.0138,-1.65138 0.23667,-2.89459 0.55209,-3.08007 0.35081,-0.2063 0.59989,-1.11547 0.59989,-2.18968 0,-0.5821 0.12981,-1.35397 0.28847,-1.71528 0.80018,-1.82217 0.75795,-3.34944 -0.12673,-4.58305 -0.64695,-0.90213 -1.5386,-1.17706 -3.81735,-1.17706 -1.2452,0 -2.44407,-0.1218 -3.39272,-0.34468 -0.80688,-0.18958 -1.70361,-0.39591 -1.99273,-0.45852 -0.42521,-0.0921 -0.49228,-0.17409 -0.35096,-0.42913 0.0961,-0.17342 0.31263,-0.61749 0.4812,-0.98681 0.16857,-0.36934 0.46734,-0.7201 0.66392,-0.77948 0.66475,-0.20073 2.11606,-2.66646 2.12874,-3.61664 0.003,-0.23662 0.26915,-0.57677 0.66448,-0.84975 0.74742,-0.51608 0.83561,-0.7283 0.30269,-0.7283 -0.61388,0 -0.97243,-0.20371 -0.97243,-0.55248 0,-0.36016 -0.84828,-1.08618 -1.26908,-1.08618 -0.14337,0 -0.58384,-0.27493 -0.97882,-0.61097 -1.1065,-0.9414 -1.52539,-1.08279 -3.63761,-1.22785 -1.07947,-0.0742 -2.32808,-0.25691 -2.77467,-0.40616 -0.53431,-0.17857 -2.19043,-0.33019 -4.84268,-0.44335 -3.12384,-0.13329 -4.13556,-0.23689 -4.49688,-0.46053 -0.68767,-0.42561 -2.88425,-0.83218 -5.05878,-0.93632 -1.05246,-0.0504 -2.37737,-0.22348 -2.94422,-0.3846 l -1.03065,-0.29294 0.10396,-1.48769 c 0.0571,-0.81823 0.25169,-1.81543 0.43224,-2.21599 0.21845,-0.48464 0.3774,-1.53846 0.47513,-3.14986 0.11338,-1.86974 0.22006,-2.49854 0.46817,-2.7594 0.50657,-0.53259 0.86883,-1.95078 0.86883,-3.40126 0,-1.00069 0.12451,-1.63951 0.50004,-2.56562 0.35211,-0.8683 0.54608,-1.79876 0.65563,-3.14492 0.0856,-1.05147 0.29049,-2.69013 0.45539,-3.64146 0.20028,-1.15552 0.30025,-2.92459 0.30116,-5.32927 9.7e-4,-3.4428 0.0206,-3.62915 0.44366,-4.27872 0.69494,-1.06709 0.86288,-1.65149 0.99226,-3.453042 0.0805,-1.121114 0.26999,-2.03123 0.56858,-2.731095 0.42203,-0.989217 0.65172,-2.429008 0.66849,-4.190429 l 0.008,-0.773812 h 51.7584 51.7584 l -0.11734,0.864848 c -0.0646,0.475667 -0.33063,1.479345 -0.5913,2.230395 -0.42909,1.236301 -0.4879,1.78779 -0.62135,5.826345 -0.10954,3.31519 -0.22704,4.69035 -0.45751,5.35459 -0.17803,0.51313 -0.3101,1.49258 -0.3101,2.29976 0,1.08838 -0.11515,1.68848 -0.50976,2.65665 -0.41793,1.02541 -0.53315,1.68117 -0.63971,3.64094 -0.11148,2.05017 -0.19301,2.48732 -0.573,3.07232 -0.37775,0.58156 -0.46422,1.03654 -0.5869,3.08816 -0.10177,1.70188 -0.27032,2.77437 -0.57589,3.66438 -0.38481,1.12086 -0.44433,1.75547 -0.54495,5.81013 -0.0838,3.38035 -0.18123,4.66685 -0.37827,4.99871 -0.15682,0.2641 -0.33057,1.3986 -0.42483,2.77389 -0.13613,1.9863 -0.22684,2.42854 -0.61951,3.02038 -0.25301,0.38136 -0.57029,1.18144 -0.70504,1.77795 -0.39266,1.73808 -0.47986,1.78683 -2.95754,1.6536 -1.1577,-0.0623 -4.51602,-0.1218 -7.46292,-0.13234 -6.19602,-0.0222 -7.6826,-0.15253 -8.52794,-0.74796 -0.52382,-0.36896 -0.85317,-0.42399 -2.85787,-0.47746 -1.98191,-0.0529 -2.3813,-0.0119 -3.18755,0.32752 -0.50866,0.21408 -1.10994,0.34301 -1.34169,0.28767 -0.30777,-0.0735 -0.45259,-0.003 -0.54218,0.26622 -0.0672,0.20157 -0.35773,0.48235 -0.64551,0.62395 -0.54831,0.26979 -0.98049,0.96234 -0.98049,1.5712 0,0.19742 -0.2317,0.78055 -0.51488,1.29586 -0.4572,0.83196 -0.52828,1.20827 -0.63444,3.35906 -0.1277,2.5871 -0.0518,2.37984 -1.36726,3.73292 -0.37751,0.38831 -0.68353,0.52184 -1.19597,0.52184 -0.37876,0 -0.68893,0.0615 -0.68926,0.13656 -3.9e-4,0.0751 0.95542,4.76577 2.1239,10.4237 1.77396,8.58974 2.12045,10.5425 2.09989,11.83476 -0.0167,1.05445 0.10351,2.0118 0.37745,3.00421 0.22112,0.80112 0.43515,2.23938 0.47563,3.19611 0.0814,1.92518 0.1109,2.055 0.76201,3.35853 0.36086,0.72244 0.47294,1.30502 0.54289,2.82214 0.0675,1.46393 0.18934,2.12503 0.5201,2.82213 0.32185,0.67833 0.45547,1.37213 0.52423,2.72193 0.0736,1.44457 0.19272,2.01629 0.58811,2.82214 0.47373,0.96551 0.49597,1.15266 0.49881,4.19686 0.002,1.75245 0.0679,3.28147 0.14735,3.39781 0.29635,0.4342 0.90808,3.78724 0.90808,4.97744 0,0.90435 -0.0895,1.33941 -0.33488,1.62751 -0.32105,0.37699 -0.36051,0.38103 -0.95663,0.0979 -0.69552,-0.33029 -0.76081,-0.5146 -0.86919,-2.45361 -0.0583,-1.04285 -0.20133,-1.59181 -0.60526,-2.32298 -0.29091,-0.52659 -0.60562,-1.00255 -0.69937,-1.05767 -0.0937,-0.0551 -0.17218,-0.85328 -0.1743,-1.77367 -0.002,-0.92038 -0.0861,-2.20599 -0.18649,-2.8569 -0.10044,-0.65092 -0.27524,-2.65827 -0.38843,-4.4608 -0.16905,-2.69234 -0.30283,-3.58607 -0.74942,-5.00702 -0.299,-0.95133 -0.59824,-2.40715 -0.66496,-3.23515 -0.11095,-1.37676 -0.55979,-2.77327 -0.89136,-2.77327 -0.1848,0 -0.33324,-0.88493 -0.47139,-2.81016 -0.0724,-1.00908 -0.2478,-1.87318 -0.46199,-2.27592 -0.18989,-0.35707 -0.40567,-0.91552 -0.47949,-1.24097 -0.0738,-0.32545 -0.21859,-0.59174 -0.32169,-0.59174 -0.10309,0 -0.13873,-0.075 -0.0792,-0.16666 0.17704,-0.27255 -0.84967,-1.29016 -1.29866,-1.28713 -0.99857,0.006 -1.25556,0.73459 -1.2847,3.63867 -0.0206,2.05035 -0.33587,4.60954 -0.87482,7.10086 -0.28486,1.31673 -0.32898,2.44404 -0.29575,7.55605 l 0.0391,6.00842 0.5861,1.113 c 0.57959,1.10063 0.5854,1.14006 0.52267,3.55042 -0.0587,2.25645 -0.10463,2.51742 -0.61833,3.51462 -0.5087,0.98749 -0.56792,1.31343 -0.71129,3.91458 -0.0861,1.56056 -0.28661,3.65672 -0.44574,4.65812 -0.22788,1.43405 -0.29011,3.7229 -0.29304,10.7771 -0.003,6.96492 -0.057,8.98793 -0.24292,9.09828 -0.36609,0.2172 -0.90018,0.18959 -2.11635,-0.10939 z m -1.21006,-36.58499 c 0.23808,-0.21281 0.52555,-0.38692 0.6388,-0.38692 0.35314,0 0.46093,-1.18669 0.63672,-7.00983 0.0937,-3.10435 0.26245,-6.17684 0.37495,-6.82775 0.11529,-0.66705 0.27617,-6.22859 0.3687,-12.74514 0.0903,-6.35891 0.25865,-12.25808 0.37415,-13.10927 0.40781,-3.00544 0.58228,-5.95701 0.39106,-6.61593 -0.10188,-0.3511 -0.44139,-0.89926 -0.75447,-1.21815 -0.35993,-0.36662 -0.56923,-0.77358 -0.56923,-1.10677 0,-0.30131 -0.10244,-0.52607 -0.2392,-0.52488 -0.13157,9.2e-4 -2.03027,-0.13134 -4.21936,-0.29442 -2.18909,-0.16307 -4.01659,-0.26185 -4.0611,-0.21948 -0.0445,0.0423 -0.20004,1.01072 -0.34562,2.15192 -0.16523,1.29536 -0.3539,2.10319 -0.50217,2.15021 -0.46961,0.14895 -1.49681,1.13409 -1.69493,1.62552 -0.11121,0.27585 -0.23861,1.40281 -0.28314,2.50435 -0.0621,1.53546 -0.18563,2.25772 -0.52964,3.09525 -0.43841,1.06737 -0.44898,1.23449 -0.46065,7.28293 -0.0116,6.04252 -0.0226,6.21661 -0.45937,7.28293 -0.40514,0.98915 -0.4509,1.41095 -0.48398,4.4608 -0.0357,3.29284 -0.049,3.39489 -0.59414,4.55184 -0.53751,1.14081 -0.56008,1.30162 -0.62614,4.4608 -0.0554,2.64917 -0.13951,3.47157 -0.43883,4.29084 -0.45913,1.25669 -0.45866,1.33789 0.0133,2.26548 0.27438,0.53929 0.62081,0.86665 1.21694,1.14993 0.45835,0.2178 0.96391,0.39601 1.12347,0.39601 0.27564,0 2.18435,0.7252 2.85081,1.08315 0.17185,0.0923 0.97462,0.29795 1.78393,0.45701 0.8093,0.15906 1.71256,0.4588 2.00723,0.66609 1.0502,0.73878 3.73763,0.8488 4.48193,0.18348 z m -18.90475,-5.75579 c 0.25102,-0.27795 0.50851,-0.80185 0.57219,-1.1642 0.0637,-0.36236 0.23749,-1.10947 0.38623,-1.66024 0.15507,-0.57424 0.29911,-2.20522 0.33766,-3.82354 0.0598,-2.50766 0.12456,-2.9743 0.58164,-4.18768 0.45454,-1.20665 0.51318,-1.62231 0.5039,-3.57203 -0.0109,-2.30187 0.20003,-3.73027 0.70833,-4.79563 0.22435,-0.47021 0.33841,-1.62223 0.45067,-4.55183 0.1391,-3.63018 0.18509,-3.9901 0.61747,-4.83266 0.443,-0.86328 0.47352,-1.13862 0.5901,-5.32298 0.11366,-4.08023 0.0973,-4.43681 -0.21768,-4.73391 -0.32627,-0.30778 -0.32643,-0.44714 -0.004,-3.31153 0.18509,-1.64464 0.31558,-3.0083 0.28996,-3.03037 -0.0594,-0.0512 -10.86498,-1.1713 -11.29926,-1.1713 -0.17843,0 -0.32442,0.11424 -0.32442,0.25386 0,0.13962 -0.23681,0.49694 -0.52624,0.79405 -0.77564,0.79623 -1.19591,2.13162 -1.19639,3.80148 -3.8e-4,1.24195 -0.0773,1.57097 -0.57949,2.47744 -0.57559,1.03897 -0.57942,1.0654 -0.6329,4.36976 -0.0567,3.501 -0.1112,3.90734 -0.62438,4.65254 -0.21093,0.30631 -0.34889,0.99302 -0.40697,2.02566 -0.0484,0.85924 -0.22122,1.93095 -0.38421,2.38158 -0.16298,0.45063 -0.33865,1.55518 -0.39036,2.45456 -0.0715,1.24224 -0.193,1.78919 -0.50584,2.27591 -0.78247,1.21736 -0.93067,1.74101 -1.05738,3.73594 -0.0801,1.26073 -0.24492,2.23892 -0.44491,2.64006 -0.5728,1.14894 -0.70404,2.20724 -0.58176,4.69135 0.1196,2.42989 -0.0452,3.80743 -0.60458,5.05608 -0.21568,0.48137 -0.20018,0.64077 0.12004,1.23466 0.20223,0.37506 0.32095,0.75386 0.26384,0.84179 -0.11876,0.18284 1.72183,1.10333 2.20618,1.10333 0.17611,0 0.8545,0.1624 1.50751,0.36089 0.65302,0.1985 1.97159,0.49037 2.93017,0.64863 0.95858,0.15824 1.91482,0.37527 2.12498,0.48229 0.60058,0.30583 2.19468,0.4914 3.72817,0.43401 1.26526,-0.0474 1.45089,-0.10299 1.86179,-0.55797 z"
       style="opacity:0;fill:#784421;fill-opacity:1;stroke:#d9ac8d;stroke-width:0.27998617;stroke-linecap:square;stroke-linejoin:miter;stroke-miterlimit:4;stroke-dasharray:none;stroke-dashoffset:0;stroke-opacity:1;paint-order:normal" />
    <path
       inkscape:connector-curvature="0"
       id="path4601"
       d="m 461.63516,199.90748 c -0.15788,-0.0566 -0.50232,-0.18507 -0.76543,-0.28562 -1.06622,-0.40743 -2.99313,-1.06523 -3.40825,-1.1635 -0.91177,-0.21584 -1.01606,-0.6689 -0.94132,-4.08979 0.0398,-1.81906 0.17033,-3.46916 0.30773,-3.88839 0.13174,-0.402 0.2849,-2.19663 0.34186,-4.00561 0.0839,-2.66713 0.16579,-3.38136 0.43951,-3.83613 0.86915,-1.44396 0.95683,-2.112 0.97807,-7.45242 0.0209,-5.25097 0.10034,-6.15345 0.66508,-7.55604 0.24851,-0.61719 0.34936,-1.56053 0.40877,-3.82354 0.0434,-1.65232 0.11486,-3.16808 0.15883,-3.36836 0.0514,-0.23436 0.40626,-0.48636 0.9954,-0.70704 1.43352,-0.53695 1.74646,-0.78644 1.96788,-1.56888 0.12127,-0.42848 0.40357,-0.8522 0.68446,-1.02732 1.0023,-0.62486 0.99341,-0.75002 0.89264,12.57473 -0.0763,10.08372 -0.14102,12.34014 -0.37141,12.94146 -0.56446,1.47323 -0.63092,2.33366 -0.75598,9.78644 l -0.12755,7.60156 -0.59164,-0.0144 c -0.32539,-0.008 -0.72079,-0.0606 -0.87865,-0.11717 z"
       style="opacity:0;fill:#784421;fill-opacity:1;stroke:#d9ac8d;stroke-width:0.27998617;stroke-linecap:square;stroke-linejoin:miter;stroke-miterlimit:4;stroke-dasharray:none;stroke-dashoffset:0;stroke-opacity:1;paint-order:normal" />
    <path
       inkscape:connector-curvature="0"
       id="path4603"
       d="m 441.54267,194.47735 c -0.47361,-0.13695 -1.30221,-0.36809 -1.84134,-0.51363 -0.53913,-0.14555 -1.46482,-0.48275 -2.05709,-0.74935 l -1.07686,-0.48472 0.009,-2.94547 c 0.006,-2.19927 0.0831,-3.12997 0.30297,-3.67376 0.38104,-0.94206 0.58614,-2.04375 0.72545,-3.89672 0.0618,-0.82194 0.22978,-1.71526 0.3733,-1.98514 0.31354,-0.58961 0.45565,-1.31585 0.61266,-3.13077 0.0673,-0.7782 0.30799,-1.79628 0.55953,-2.36695 0.30426,-0.69026 0.47689,-1.5344 0.5556,-2.71684 0.0726,-1.09132 0.2236,-1.87432 0.41495,-2.15218 0.71708,-1.04132 0.89486,-1.95854 1.05013,-5.41813 0.0854,-1.90267 0.24286,-3.89488 0.34991,-4.42715 0.10703,-0.53228 0.21005,-1.67934 0.22891,-2.54904 0.0334,-1.54052 0.0511,-1.59687 0.68536,-2.18736 0.7769,-0.72323 1.46786,-0.93832 2.3209,-0.72249 0.70857,0.17927 0.99706,0.68711 0.99706,1.75512 0,0.84675 0.40328,1.40577 1.30628,1.81073 l 0.70297,0.31525 v 3.8218 c 0,3.79342 -0.004,3.82631 -0.47839,4.42848 -0.46933,0.59517 -0.47944,0.67793 -0.53403,4.36975 -0.0525,3.55047 -0.0826,3.82171 -0.53251,4.80056 -0.49653,1.08026 -0.58908,1.77602 -0.73393,5.51717 -0.0465,1.20169 -0.19437,2.43068 -0.32856,2.7311 -0.15637,0.3501 -0.28173,1.8647 -0.34913,4.21833 -0.0985,3.43937 -0.13245,3.70722 -0.53571,4.22584 -0.23681,0.30454 -0.43056,0.59963 -0.43056,0.65574 0,0.27809 -0.99236,1.54927 -1.19838,1.5351 -0.13024,-0.009 -0.62429,-0.12833 -1.0979,-0.26527 z"
       style="opacity:0;fill:#784421;fill-opacity:1;stroke:#d9ac8d;stroke-width:0.27998617;stroke-linecap:square;stroke-linejoin:miter;stroke-miterlimit:4;stroke-dasharray:none;stroke-dashoffset:0;stroke-opacity:1;paint-order:normal" />
    <path
       inkscape:connector-curvature="0"
       id="path4605"
       d="m 465.0001,238.14392 c -0.0235,-0.5007 -0.006,-7.52972 0.0398,-15.62003 l 0.0825,-14.70966 -3.29292,-0.81525 c -5.185,-1.28367 -8.53286,-2.29574 -10.06496,-3.04264 -0.77772,-0.37915 -1.57254,-0.53854 -1.76628,-0.35421 -0.19373,0.18433 -2.31295,-0.25975 -4.70938,-0.98685 -14.15474,-4.29469 -13.81306,-4.21974 -15.11362,-3.31488 -1.56864,1.09136 -2.67485,5.73629 -3.01147,12.64496 -0.24565,5.04176 -2.36021,11.80617 -3.69245,11.81202 -0.90156,0.004 1.05371,-12.59012 3.67436,-23.66679 0.56861,-2.40338 1.26875,-6.9676 1.55586,-10.14273 0.28709,-3.17514 0.79527,-6.28859 1.12927,-6.91878 0.62105,-1.17185 2.55388,-11.23839 3.78583,-19.71731 0.37829,-2.60365 1.06431,-6.13977 1.52448,-7.85804 1.14422,-4.27257 0.13909,-5.95634 -3.61284,-6.05213 -1.56388,-0.0399 -3.6479,-0.28778 -4.63117,-0.55079 -1.76504,-0.47213 -1.76991,-0.50135 -0.38272,-2.29954 3.58535,-4.64761 3.69945,-5.2278 1.37488,-6.99142 -1.44305,-1.09483 -3.65648,-1.76846 -6.79568,-2.06818 -4.2063,-0.40162 -7.95026,-0.89949 -16.79081,-2.23286 -2.72264,-0.41064 -2.91668,-0.59572 -2.51683,-2.40052 0.23829,-1.07557 0.80407,-4.08584 1.2573,-6.68948 0.45322,-2.60365 1.16531,-5.88097 1.58242,-7.28294 0.41712,-1.40196 1.0939,-5.82635 1.50397,-9.83195 0.41006,-4.00563 1.42726,-11.215734 2.26044,-16.022467 0.83317,-4.806737 1.87082,-11.92721 2.30587,-15.823275 0.43506,-3.896064 1.14189,-7.961884 1.57076,-9.035154 l 0.77975,-1.951401 13.1772,0.473251 c 7.24745,0.260288 16.8173,0.68528 21.26633,0.944427 l 8.08914,0.471173 1.67007,-2.693227 c 0.91853,-1.481275 1.67007,-3.181924 1.67007,-3.77922 0,-0.597295 0.66475,-2.395134 1.47724,-3.995199 0.81248,-1.600063 1.70637,-3.901791 1.98641,-5.11495 0.28004,-1.213158 0.66389,-2.058522 0.853,-1.878587 0.18911,0.179936 0.61225,4.13298 0.94032,8.784543 0.32806,4.651563 0.82775,8.677442 1.11042,8.946399 0.44345,0.421936 11.55455,0.976919 41.65248,2.080482 3.88821,0.142564 7.45118,0.483671 7.91771,0.758014 0.49344,0.290164 0.64292,1.300837 0.35738,2.416244 -1.07876,4.213938 -3.60137,20.564531 -4.28097,27.747787 -0.39666,4.19266 -1.04325,8.61705 -1.43684,9.83196 -0.7982,2.46388 -2.5177,13.18984 -2.751,17.16042 -0.29059,4.94535 -1.22793,11.28761 -2.02396,13.69483 l -0.80284,2.42775 -8.91333,-0.45387 c -16.56704,-0.84363 -16.81475,-0.8378 -18.14392,0.42723 -0.68618,0.65307 -1.47332,2.9472 -1.74922,5.09807 -0.3974,3.0982 -0.85831,4.05957 -2.21852,4.62741 -1.00644,0.42014 -1.57647,1.17358 -1.37752,1.82074 0.51668,1.68067 3.5173,17.06664 4.68938,24.04522 1.76498,10.50877 3.14728,17.79364 3.59303,18.93562 0.23453,0.60085 0.63513,3.79623 0.8902,7.10086 0.37829,4.90092 0.26427,6.00842 -0.61854,6.00842 -1.3145,0 -2.02414,-3.32139 -3.62319,-16.95825 -0.50656,-4.32004 -1.21311,-8.02637 -1.57009,-8.23629 -0.357,-0.20993 -0.65415,-1.42748 -0.66036,-2.70566 -0.0124,-2.55373 -1.42507,-5.70086 -2.74459,-6.11438 -1.62828,-0.51028 -2.29506,10.16557 -1.79467,28.73446 0.0512,1.90267 -0.26397,5.75351 -0.70052,8.55744 -0.43656,2.80393 -0.81143,9.27664 -0.83306,14.3838 -0.0372,8.78775 -0.1214,9.28574 -1.57016,9.28574 -0.84197,0 -1.55005,-0.40966 -1.57351,-0.91036 z m -0.19158,-36.07945 c 1.16657,-0.70567 2.85096,-46.99699 1.72372,-47.37235 -0.40347,-0.13436 -0.5374,-0.54633 -0.2976,-0.91551 0.52901,-0.81443 -0.48165,-1.14193 -5.15446,-1.6703 -3.52376,-0.39844 -3.58826,-0.3684 -4.11583,1.91704 -0.29477,1.277 -0.79591,2.82417 -1.11364,3.43817 -1.29044,2.49374 -2.29171,8.375 -2.33064,13.68985 -0.0227,3.0986 -0.39132,8.25568 -0.81915,11.46018 -1.59257,11.92851 -1.84584,15.02712 -1.29731,15.8716 0.64835,0.99818 8.68383,3.98524 10.96015,4.07428 0.84197,0.0329 1.94212,-0.1889 2.44476,-0.49296 z m -18.5362,-7.98231 c 0.23905,-1.5021 0.78699,-4.86135 1.21768,-7.46501 1.36924,-8.27761 2.3693,-18.31154 2.69451,-27.0348 l 0.31552,-8.46332 -5.45536,-0.51148 c -3.00045,-0.28132 -5.75731,-0.22418 -6.12635,0.12696 -1.04174,0.9912 -2.72396,8.04884 -3.22481,13.52949 -0.40648,4.44817 -1.50442,9.79048 -3.54619,17.2551 -0.88421,3.23259 -1.29837,12.13375 -0.59568,12.80235 0.81765,0.77798 8.27509,2.36052 11.45038,2.42988 2.70454,0.0591 2.85577,-0.0644 3.2703,-2.66917 z"
       style="opacity:0;fill:#784421;fill-opacity:1;stroke:#d9ac8d;stroke-width:1.11994469;stroke-linecap:square;stroke-linejoin:miter;stroke-miterlimit:4;stroke-dasharray:none;stroke-dashoffset:0;stroke-opacity:1;paint-order:normal" />
    <path
       inkscape:connector-curvature="0"
       id="path4607"
       d="m 465.0001,238.14392 c -0.0235,-0.5007 -0.006,-7.52972 0.0398,-15.62003 l 0.0825,-14.70966 -3.29292,-0.81525 c -5.185,-1.28367 -8.53286,-2.29574 -10.06496,-3.04264 -0.77772,-0.37915 -1.57254,-0.53854 -1.76628,-0.35421 -0.19373,0.18433 -2.31295,-0.25975 -4.70938,-0.98685 -14.15474,-4.29469 -13.81306,-4.21974 -15.11362,-3.31488 -1.56864,1.09136 -2.67485,5.73629 -3.01147,12.64496 -0.24565,5.04176 -2.36021,11.80617 -3.69245,11.81202 -0.90156,0.004 1.05371,-12.59012 3.67436,-23.66679 0.56861,-2.40338 1.26875,-6.9676 1.55586,-10.14273 0.28709,-3.17514 0.79527,-6.28859 1.12927,-6.91878 0.62105,-1.17185 2.55388,-11.23839 3.78583,-19.71731 0.37829,-2.60365 1.06431,-6.13977 1.52448,-7.85804 1.14422,-4.27257 0.13909,-5.95634 -3.61284,-6.05213 -1.56388,-0.0399 -3.6479,-0.28778 -4.63117,-0.55079 -1.76504,-0.47213 -1.76991,-0.50135 -0.38272,-2.29954 3.58535,-4.64761 3.69945,-5.2278 1.37488,-6.99142 -1.44305,-1.09483 -3.65648,-1.76846 -6.79568,-2.06818 -4.2063,-0.40162 -7.95026,-0.89949 -16.79081,-2.23286 -2.72264,-0.41064 -2.91668,-0.59572 -2.51683,-2.40052 0.23829,-1.07557 0.80407,-4.08584 1.2573,-6.68948 0.45322,-2.60365 1.16531,-5.88097 1.58242,-7.28294 0.41712,-1.40196 1.0939,-5.82635 1.50397,-9.83195 0.41006,-4.00563 1.42726,-11.215734 2.26044,-16.022467 0.83317,-4.806737 1.87082,-11.92721 2.30587,-15.823275 0.43506,-3.896064 1.14189,-7.961884 1.57076,-9.035154 l 0.77975,-1.951401 13.1772,0.473251 c 7.24745,0.260288 16.8173,0.68528 21.26633,0.944427 l 8.08914,0.471173 1.67007,-2.693227 c 0.91853,-1.481275 1.67007,-3.181924 1.67007,-3.77922 0,-0.597295 0.66475,-2.395134 1.47724,-3.995199 0.81248,-1.600063 1.70637,-3.901791 1.98641,-5.11495 0.28004,-1.213158 0.66389,-2.058522 0.853,-1.878587 0.18911,0.179936 0.61225,4.13298 0.94032,8.784543 0.32806,4.651563 0.82775,8.677442 1.11042,8.946399 0.44345,0.421936 11.55455,0.976919 41.65248,2.080482 3.88821,0.142564 7.45118,0.483671 7.91771,0.758014 0.49344,0.290164 0.64292,1.300837 0.35738,2.416244 -1.07876,4.213938 -3.60137,20.564531 -4.28097,27.747787 -0.39666,4.19266 -1.04325,8.61705 -1.43684,9.83196 -0.7982,2.46388 -2.5177,13.18984 -2.751,17.16042 -0.29059,4.94535 -1.22793,11.28761 -2.02396,13.69483 l -0.80284,2.42775 -8.91333,-0.45387 c -16.56704,-0.84363 -16.81475,-0.8378 -18.14392,0.42723 -0.68618,0.65307 -1.47332,2.9472 -1.74922,5.09807 -0.3974,3.0982 -0.85831,4.05957 -2.21852,4.62741 -1.00644,0.42014 -1.57647,1.17358 -1.37752,1.82074 0.51668,1.68067 3.5173,17.06664 4.68938,24.04522 1.76498,10.50877 3.14728,17.79364 3.59303,18.93562 0.23453,0.60085 0.63513,3.79623 0.8902,7.10086 0.37829,4.90092 0.26427,6.00842 -0.61854,6.00842 -1.3145,0 -2.02414,-3.32139 -3.62319,-16.95825 -0.50656,-4.32004 -1.21311,-8.02637 -1.57009,-8.23629 -0.357,-0.20993 -0.65415,-1.42748 -0.66036,-2.70566 -0.0124,-2.55373 -1.42507,-5.70086 -2.74459,-6.11438 -1.62828,-0.51028 -2.29506,10.16557 -1.79467,28.73446 0.0512,1.90267 -0.26397,5.75351 -0.70052,8.55744 -0.43656,2.80393 -0.81143,9.27664 -0.83306,14.3838 -0.0372,8.78775 -0.1214,9.28574 -1.57016,9.28574 -0.84197,0 -1.55005,-0.40966 -1.57351,-0.91036 z m -0.19158,-36.07945 c 1.16657,-0.70567 2.85096,-46.99699 1.72372,-47.37235 -0.40347,-0.13436 -0.5374,-0.54633 -0.2976,-0.91551 0.52901,-0.81443 -0.48165,-1.14193 -5.15446,-1.6703 -3.52376,-0.39844 -3.58826,-0.3684 -4.11583,1.91704 -0.29477,1.277 -0.79591,2.82417 -1.11364,3.43817 -1.29044,2.49374 -2.29171,8.375 -2.33064,13.68985 -0.0227,3.0986 -0.39132,8.25568 -0.81915,11.46018 -1.59257,11.92851 -1.84584,15.02712 -1.29731,15.8716 0.64835,0.99818 8.68383,3.98524 10.96015,4.07428 0.84197,0.0329 1.94212,-0.1889 2.44476,-0.49296 z m -18.5362,-7.98231 c 0.23905,-1.5021 0.78699,-4.86135 1.21768,-7.46501 1.36924,-8.27761 2.3693,-18.31154 2.69451,-27.0348 l 0.31552,-8.46332 -5.45536,-0.51148 c -3.00045,-0.28132 -5.75731,-0.22418 -6.12635,0.12696 -1.04174,0.9912 -2.72396,8.04884 -3.22481,13.52949 -0.40648,4.44817 -1.50442,9.79048 -3.54619,17.2551 -0.88421,3.23259 -1.29837,12.13375 -0.59568,12.80235 0.81765,0.77798 8.27509,2.36052 11.45038,2.42988 2.70454,0.0591 2.85577,-0.0644 3.2703,-2.66917 z"
       style="opacity:0;fill:#784421;fill-opacity:1;stroke:#d9ac8d;stroke-width:1.11994469;stroke-linecap:square;stroke-linejoin:miter;stroke-miterlimit:4;stroke-dasharray:none;stroke-dashoffset:0;stroke-opacity:1;paint-order:normal" />
    <g
       transform="matrix(1.325903,0,0,1.0930862,-131.19904,-19.54628)"
       id="g4673">
      <g
         id="g4639"
         transform="translate(-12.577639,15.160949)">
        <path
           inkscape:connector-curvature="0"
           id="path4579"
           d="m 413.62668,39.784048 47.01492,0.559701 8.39552,-21.828358 1.67911,23.507462 53.17164,2.238806 -12.31343,82.835821 -27.98508,-2.23881 -1.1194,12.31344 h -5.03732 l 12.87314,65.48507 -7.27612,-1.6791 -5.59702,-38.0597 -1.1194,68.84328 -8.95522,-3.91791 1.6791,-33.02239 -34.70149,-9.51492 -3.35821,28.54477 -6.15672,-2.79851 12.31344,-79.47761 -14.55224,-1.1194 6.15672,-10.63433 -26.30598,-2.79851 z"
           style="fill:#e9d5c4;fill-opacity:0.99607843;stroke:#d9ac8d;stroke-width:3.99499989;stroke-linecap:square;stroke-linejoin:miter;stroke-miterlimit:4;stroke-dasharray:none;stroke-opacity:1"
           sodipodi:nodetypes="ccccccccccccccccccccccc" />
      </g>
      <g
         id="g4666"
         style="stroke:#d9ac8d;stroke-width:3.99499989;stroke-linecap:square;stroke-miterlimit:4;stroke-dasharray:none;stroke-opacity:1"
         transform="matrix(1,0,0,0.96594904,-13.556349,19.978676)">
        <path
           inkscape:connector-curvature="0"
           id="path4647"
           d="m 446.08209,133.20896 -7.55597,47.85447"
           style="fill:none;stroke:#d9ac8d;stroke-width:3.99499989;stroke-linecap:square;stroke-linejoin:miter;stroke-miterlimit:4;stroke-dasharray:none;stroke-opacity:1" />
        <path
           sodipodi:nodetypes="cccc"
           inkscape:connector-curvature="0"
           id="path4649"
           d="m 438.16745,180.49451 31.76789,8.11476 -0.0659,-52.18203 -24.28344,-3.28469"
           style="fill:none;stroke:#d9ac8d;stroke-width:3.99499989;stroke-linecap:square;stroke-linejoin:miter;stroke-miterlimit:4;stroke-dasharray:none;stroke-opacity:1" />
      </g>
    </g>
    <path
       inkscape:connector-curvature="0"
       id="path100"
       d="m 101.9922,208.99748 c -10.29433,-0.93155 -18.19139,-7.40084 -22.787668,-18.66769 -4.075676,-9.99069 -4.113563,-22.74699 -0.09669,-32.55422 4.392929,-10.72538 12.467544,-17.99353 22.003538,-19.80588 2.07529,-0.39442 6.89896,-0.39587 8.96646,-0.003 3.04674,0.57941 5.71102,1.62301 8.25722,3.23435 1.76654,1.11794 4.73919,3.85159 6.22965,5.72879 3.58511,4.51533 6.10119,10.7836 6.49185,16.17302 0.31904,4.40129 -0.47548,8.13466 -2.0304,9.54068 l -0.53963,0.48795 -14.64744,0.0813 c -14.326672,0.0796 -14.66036,0.0885 -15.237483,0.41115 -3.270768,1.82833 -2.864511,8.37022 0.858935,13.8313 1.238568,1.81659 4.306208,4.66442 6.003738,5.57357 3.55496,1.90394 6.92749,2.1476 11.16382,0.80657 2.93061,-0.9277 5.53976,-2.38047 7.94937,-4.42621 0.60745,-0.51572 1.30652,-1.0371 1.5535,-1.15862 0.41433,-0.20387 0.48154,-0.18697 0.86947,0.21861 0.63131,0.66006 0.94331,1.19691 1.32952,2.28773 1.0916,3.08315 -0.60873,6.87396 -4.7755,10.64682 -4.5302,4.10194 -9.24778,6.45351 -14.70439,7.32974 -1.92591,0.30926 -5.03376,0.42877 -6.85787,0.2637 z m 8.13997,-44.53494 c 2.4129,-1.05578 3.67533,-3.49639 3.67533,-7.10536 0,-5.84036 -2.63041,-10.47927 -6.64184,-11.71336 -1.42598,-0.4387 -3.75244,-0.29306 -5.07751,0.31784 -1.67157,0.77066 -3.12727,2.31631 -4.251275,4.51396 -1.105862,2.16217 -1.558485,3.63074 -1.813431,5.88379 -0.292808,2.58763 0.06373,4.67692 1.072094,6.28252 0.617147,0.98266 1.855387,1.81878 3.106462,2.09763 0.38451,0.0857 2.58378,0.14258 4.88727,0.1264 3.97332,-0.0279 4.23202,-0.0486 5.0429,-0.40342 z"
       style="opacity:0;fill:#e9d5c4;fill-opacity:0.99607843;stroke:#d9ac8d;stroke-width:0.66615552;stroke-linecap:square;stroke-linejoin:miter;stroke-miterlimit:4;stroke-dasharray:none;stroke-dashoffset:0;stroke-opacity:1;paint-order:normal" />
    <path
       inkscape:connector-curvature="0"
       id="path102"
       d="m 101.9922,208.99748 c -10.29433,-0.93155 -18.19139,-7.40084 -22.787668,-18.66769 -4.075676,-9.99069 -4.113563,-22.74699 -0.09669,-32.55422 4.392929,-10.72538 12.467544,-17.99353 22.003538,-19.80588 2.07529,-0.39442 6.89896,-0.39587 8.96646,-0.003 3.04674,0.57941 5.71102,1.62301 8.25722,3.23435 1.76654,1.11794 4.73919,3.85159 6.22965,5.72879 3.58511,4.51533 6.10119,10.7836 6.49185,16.17302 0.31904,4.40129 -0.47548,8.13466 -2.0304,9.54068 l -0.53963,0.48795 -14.64744,0.0813 c -14.326672,0.0796 -14.66036,0.0885 -15.237483,0.41115 -3.270768,1.82833 -2.864511,8.37022 0.858935,13.8313 1.238568,1.81659 4.306208,4.66442 6.003738,5.57357 3.55496,1.90394 6.92749,2.1476 11.16382,0.80657 2.93061,-0.9277 5.53976,-2.38047 7.94937,-4.42621 0.60745,-0.51572 1.30652,-1.0371 1.5535,-1.15862 0.41433,-0.20387 0.48154,-0.18697 0.86947,0.21861 0.63131,0.66006 0.94331,1.19691 1.32952,2.28773 1.0916,3.08315 -0.60873,6.87396 -4.7755,10.64682 -4.5302,4.10194 -9.24778,6.45351 -14.70439,7.32974 -1.92591,0.30926 -5.03376,0.42877 -6.85787,0.2637 z m 8.13997,-44.53494 c 2.4129,-1.05578 3.67533,-3.49639 3.67533,-7.10536 0,-5.84036 -2.63041,-10.47927 -6.64184,-11.71336 -1.42598,-0.4387 -3.75244,-0.29306 -5.07751,0.31784 -1.67157,0.77066 -3.12727,2.31631 -4.251275,4.51396 -1.105862,2.16217 -1.558485,3.63074 -1.813431,5.88379 -0.292808,2.58763 0.06373,4.67692 1.072094,6.28252 0.617147,0.98266 1.855387,1.81878 3.106462,2.09763 0.38451,0.0857 2.58378,0.14258 4.88727,0.1264 3.97332,-0.0279 4.23202,-0.0486 5.0429,-0.40342 z"
       style="opacity:0;fill:#e9d5c4;fill-opacity:0.99607843;stroke:#d9ac8d;stroke-width:0.66615552;stroke-linecap:square;stroke-linejoin:miter;stroke-miterlimit:4;stroke-dasharray:none;stroke-dashoffset:0;stroke-opacity:1;paint-order:normal" />
    <path
       inkscape:connector-curvature="0"
       id="path104"
       d="m 101.9922,208.99748 c -10.29433,-0.93155 -18.19139,-7.40084 -22.787668,-18.66769 -4.075676,-9.99069 -4.113563,-22.74699 -0.09669,-32.55422 4.392929,-10.72538 12.467544,-17.99353 22.003538,-19.80588 2.07529,-0.39442 6.89896,-0.39587 8.96646,-0.003 3.04674,0.57941 5.71102,1.62301 8.25722,3.23435 1.76654,1.11794 4.73919,3.85159 6.22965,5.72879 3.58511,4.51533 6.10119,10.7836 6.49185,16.17302 0.31904,4.40129 -0.47548,8.13466 -2.0304,9.54068 l -0.53963,0.48795 -14.64744,0.0813 c -14.326672,0.0796 -14.66036,0.0885 -15.237483,0.41115 -3.270768,1.82833 -2.864511,8.37022 0.858935,13.8313 1.238568,1.81659 4.306208,4.66442 6.003738,5.57357 3.55496,1.90394 6.92749,2.1476 11.16382,0.80657 2.93061,-0.9277 5.53976,-2.38047 7.94937,-4.42621 0.60745,-0.51572 1.30652,-1.0371 1.5535,-1.15862 0.41433,-0.20387 0.48154,-0.18697 0.86947,0.21861 0.63131,0.66006 0.94331,1.19691 1.32952,2.28773 1.0916,3.08315 -0.60873,6.87396 -4.7755,10.64682 -4.5302,4.10194 -9.24778,6.45351 -14.70439,7.32974 -1.92591,0.30926 -5.03376,0.42877 -6.85787,0.2637 z m 8.13997,-44.53494 c 2.4129,-1.05578 3.67533,-3.49639 3.67533,-7.10536 0,-5.84036 -2.63041,-10.47927 -6.64184,-11.71336 -1.42598,-0.4387 -3.75244,-0.29306 -5.07751,0.31784 -1.67157,0.77066 -3.12727,2.31631 -4.251275,4.51396 -1.105862,2.16217 -1.558485,3.63074 -1.813431,5.88379 -0.292808,2.58763 0.06373,4.67692 1.072094,6.28252 0.617147,0.98266 1.855387,1.81878 3.106462,2.09763 0.38451,0.0857 2.58378,0.14258 4.88727,0.1264 3.97332,-0.0279 4.23202,-0.0486 5.0429,-0.40342 z"
       style="opacity:0;fill:#800000;fill-opacity:0.99607843;stroke:#d9ac8d;stroke-width:0.66615552;stroke-linecap:square;stroke-linejoin:miter;stroke-miterlimit:4;stroke-dasharray:none;stroke-dashoffset:0;stroke-opacity:1;paint-order:normal" />
    <path
       inkscape:connector-curvature="0"
       id="path106"
       d="m 101.9922,208.99748 c -10.29433,-0.93155 -18.19139,-7.40084 -22.787668,-18.66769 -4.075676,-9.99069 -4.113563,-22.74699 -0.09669,-32.55422 4.392929,-10.72538 12.467544,-17.99353 22.003538,-19.80588 2.07529,-0.39442 6.89896,-0.39587 8.96646,-0.003 3.04674,0.57941 5.71102,1.62301 8.25722,3.23435 1.76654,1.11794 4.73919,3.85159 6.22965,5.72879 3.58511,4.51533 6.10119,10.7836 6.49185,16.17302 0.31904,4.40129 -0.47548,8.13466 -2.0304,9.54068 l -0.53963,0.48795 -14.64744,0.0813 c -14.326672,0.0796 -14.66036,0.0885 -15.237483,0.41115 -3.270768,1.82833 -2.864511,8.37022 0.858935,13.8313 1.238568,1.81659 4.306208,4.66442 6.003738,5.57357 3.55496,1.90394 6.92749,2.1476 11.16382,0.80657 2.93061,-0.9277 5.53976,-2.38047 7.94937,-4.42621 0.60745,-0.51572 1.30652,-1.0371 1.5535,-1.15862 0.41433,-0.20387 0.48154,-0.18697 0.86947,0.21861 0.63131,0.66006 0.94331,1.19691 1.32952,2.28773 1.0916,3.08315 -0.60873,6.87396 -4.7755,10.64682 -4.5302,4.10194 -9.24778,6.45351 -14.70439,7.32974 -1.92591,0.30926 -5.03376,0.42877 -6.85787,0.2637 z m 8.13997,-44.53494 c 2.4129,-1.05578 3.67533,-3.49639 3.67533,-7.10536 0,-5.84036 -2.63041,-10.47927 -6.64184,-11.71336 -1.42598,-0.4387 -3.75244,-0.29306 -5.07751,0.31784 -1.67157,0.77066 -3.12727,2.31631 -4.251275,4.51396 -1.105862,2.16217 -1.558485,3.63074 -1.813431,5.88379 -0.292808,2.58763 0.06373,4.67692 1.072094,6.28252 0.617147,0.98266 1.855387,1.81878 3.106462,2.09763 0.38451,0.0857 2.58378,0.14258 4.88727,0.1264 3.97332,-0.0279 4.23202,-0.0486 5.0429,-0.40342 z"
       style="opacity:0;fill:#800000;fill-opacity:0.99607843;stroke:#d9ac8d;stroke-width:0.66615552;stroke-linecap:square;stroke-linejoin:miter;stroke-miterlimit:4;stroke-dasharray:none;stroke-dashoffset:0;stroke-opacity:1;paint-order:normal" />
    <path
       inkscape:connector-curvature="0"
       id="path108"
       d="m 101.9922,208.99748 c -10.29433,-0.93155 -18.19139,-7.40084 -22.787668,-18.66769 -4.075676,-9.99069 -4.113563,-22.74699 -0.09669,-32.55422 4.392929,-10.72538 12.467544,-17.99353 22.003538,-19.80588 2.07529,-0.39442 6.89896,-0.39587 8.96646,-0.003 3.04674,0.57941 5.71102,1.62301 8.25722,3.23435 1.76654,1.11794 4.73919,3.85159 6.22965,5.72879 3.58511,4.51533 6.10119,10.7836 6.49185,16.17302 0.31904,4.40129 -0.47548,8.13466 -2.0304,9.54068 l -0.53963,0.48795 -14.64744,0.0813 c -14.326672,0.0796 -14.66036,0.0885 -15.237483,0.41115 -3.270768,1.82833 -2.864511,8.37022 0.858935,13.8313 1.238568,1.81659 4.306208,4.66442 6.003738,5.57357 3.55496,1.90394 6.92749,2.1476 11.16382,0.80657 2.93061,-0.9277 5.53976,-2.38047 7.94937,-4.42621 0.60745,-0.51572 1.30652,-1.0371 1.5535,-1.15862 0.41433,-0.20387 0.48154,-0.18697 0.86947,0.21861 0.63131,0.66006 0.94331,1.19691 1.32952,2.28773 1.0916,3.08315 -0.60873,6.87396 -4.7755,10.64682 -4.5302,4.10194 -9.24778,6.45351 -14.70439,7.32974 -1.92591,0.30926 -5.03376,0.42877 -6.85787,0.2637 z m 8.13997,-44.53494 c 2.4129,-1.05578 3.67533,-3.49639 3.67533,-7.10536 0,-5.84036 -2.63041,-10.47927 -6.64184,-11.71336 -1.42598,-0.4387 -3.75244,-0.29306 -5.07751,0.31784 -1.67157,0.77066 -3.12727,2.31631 -4.251275,4.51396 -1.105862,2.16217 -1.558485,3.63074 -1.813431,5.88379 -0.292808,2.58763 0.06373,4.67692 1.072094,6.28252 0.617147,0.98266 1.855387,1.81878 3.106462,2.09763 0.38451,0.0857 2.58378,0.14258 4.88727,0.1264 3.97332,-0.0279 4.23202,-0.0486 5.0429,-0.40342 z"
       style="opacity:0;fill:#800000;fill-opacity:0.99607843;stroke:#d9ac8d;stroke-width:0.66615552;stroke-linecap:square;stroke-linejoin:miter;stroke-miterlimit:4;stroke-dasharray:none;stroke-dashoffset:0;stroke-opacity:1;paint-order:normal" />
    <g
       transform="matrix(0.96701413,0,0,0.92009972,35.472522,3.650973)"
       style="fill:#e9d5c4;fill-opacity:1;stroke:#d9ac8d;stroke-width:3.99499989;stroke-linecap:square;stroke-linejoin:miter;stroke-miterlimit:4;stroke-dasharray:none;stroke-opacity:1"
       id="g120">
      <path
         style="fill:#e9d5c4;fill-opacity:1;stroke:#d9ac8d;stroke-width:3.99499989;stroke-linecap:square;stroke-linejoin:miter;stroke-miterlimit:4;stroke-dasharray:none;stroke-opacity:1"
         d="m 85.206364,170.77624 c 3.512499,-15.16626 9.592029,-3.72078 9.722718,-1e-5 -1.365218,1.55833 -7.030397,1.68173 -9.722718,1e-5 z"
         id="path76"
         inkscape:connector-curvature="0"
         sodipodi:nodetypes="ccc" />
      <g
         style="fill:#e9d5c4;fill-opacity:1;stroke:#d9ac8d;stroke-width:3.99499989;stroke-linecap:square;stroke-linejoin:miter;stroke-miterlimit:4;stroke-dasharray:none;stroke-opacity:1"
         id="g114">
        <path
           sodipodi:nodetypes="cssssssssc"
           inkscape:connector-curvature="0"
           id="path82"
           d="m 58.159531,177.31698 c 0,0 6.540738,-31.1127 30.759144,-32.88047 24.218405,-1.76776 34.273055,29.4163 29.168155,42.60319 -2.20059,5.68451 -31.996582,1.06065 -33.764348,3.35875 -1.767767,2.2981 3.889087,15.37957 11.844038,15.9099 7.95495,0.53033 10.18868,-6.97915 16.08668,-7.60139 2.23554,-0.23585 7.72115,8.67153 0.35356,19.44544 -2.83389,4.14409 -19.189377,14.01173 -29.521715,10.96014 -2.209226,-0.65248 -18.494267,-4.95418 -24.04163,-28.99137 -2.545375,-11.02932 -0.883884,-22.80419 -0.883884,-22.80419 z"
           style="fill:#e9d5c4;fill-opacity:1;stroke:#d9ac8d;stroke-width:3.99499989;stroke-linecap:square;stroke-linejoin:miter;stroke-miterlimit:4;stroke-dasharray:none;stroke-opacity:1" />
        <path
           inkscape:connector-curvature="0"
           id="path110"
           d="m 88.131208,171.21026 c -0.520298,-0.0924 -1.252577,-0.30663 -1.627287,-0.47615 l -0.681292,-0.30824 0.579955,-1.7735 c 1.109441,-3.39266 2.162521,-4.85563 3.495208,-4.85563 0.61601,0 0.823828,0.11876 1.645209,0.94014 1.293108,1.29311 2.472529,3.70374 2.479205,5.06727 l 0.0047,0.96927 -0.707107,0.24494 c -0.878361,0.30427 -3.921499,0.41682 -5.188637,0.1919 z"
           style="opacity:0;fill:#e9d5c4;fill-opacity:1;stroke:#d9ac8d;stroke-width:3.99499989;stroke-linecap:square;stroke-linejoin:miter;stroke-miterlimit:4;stroke-dasharray:none;stroke-dashoffset:0;stroke-opacity:1;paint-order:normal" />
      </g>
    </g>
    <path
       sodipodi:nodetypes="ccsccsssscssssssc"
       inkscape:connector-curvature="0"
       id="path944"
       d="m 152.17323,142.04203 25.58304,-20.94433 c 0,0 0.98001,-1.37181 5.08966,-1.33667 4.10964,0.0352 4.32965,2.33739 4.32965,2.33739 l -0.11735,12.42084 c 0,0 -0.29173,5.28829 5.5123,5.1079 5.80401,-0.1805 12.57935,-0.81254 12.51851,5.62791 -0.0608,6.44044 1.13442,10.51002 -9.28625,10.50213 -10.13589,-0.007 -7.69008,-4.90339 -8.01615,29.60586 -0.13474,14.26095 13.25027,4.94405 13.25027,4.94405 0,0 8.04825,6.71924 -3.07695,18.60645 0,0 -11.45324,9.56347 -22.06172,6.48228 -11.10341,-3.22493 -13.94289,-8.4005 -15.51775,-20.83581 -1.57485,-12.43532 1.82644,-39.7803 -1.30968,-40.49723 -3.13617,-0.71692 -7.74451,0.85389 -8.68976,-1.4545 -0.94524,-2.30843 -0.39008,-9.89481 -0.38783,-10.12481 0.002,-0.23002 2.18005,-0.44142 2.18005,-0.44142 z"
       style="fill:#e9d5c4;fill-opacity:1;stroke:#d9ac8d;stroke-width:3.76834488;stroke-linecap:square;stroke-linejoin:miter;stroke-miterlimit:4;stroke-dasharray:none;stroke-opacity:1" />
    <path
       sodipodi:nodetypes="ccssssscsssssssssc"
       inkscape:connector-curvature="0"
       id="path898"
       d="m 241.59451,142.13542 v 43.01466 c 0,0 1.69226,12.19132 6.28558,10.58115 4.59331,-1.61018 7.49436,-6.22083 7.49436,-14.03152 0,-8.05087 1.91729,-25.90721 -2.41754,-28.06304 -3.80192,-1.89081 -6.3652,-5.74411 -4.10981,-9.66105 1.25402,-2.17784 -2.24722,-4.16946 27.0764,-7.59082 12.02165,-1.40264 -0.0857,57.62773 6.04384,57.50623 0,0 11.76751,6.59099 -0.48351,13.8015 -10.48902,6.17345 -22.77213,5.12373 -24.65886,3.68039 -2.19392,-1.67833 -0.37178,-5.31595 -2.65929,-6.90074 -2.39371,-1.65837 -5.03894,3.55857 -11.60416,6.67072 -6.89007,3.26615 -15.47619,3.04494 -21.27431,-4.14045 -7.33473,-9.08964 -4.60289,-46.85921 -6.52735,-52.21566 -0.94993,-2.64401 -6.7691,-5.06055 -6.7691,-7.59082 0,-2.7794 2.65929,-6.21067 11.12067,-8.2809 8.46137,-2.07022 20.54905,-4.14045 21.75781,-1.8402 1.20877,2.30025 0.72527,5.06055 0.72527,5.06055 z"
       style="fill:#e9d5c4;fill-opacity:1;stroke:#d9ac8d;stroke-width:3.76834488;stroke-linecap:square;stroke-linejoin:miter;stroke-miterlimit:4;stroke-dasharray:none;stroke-opacity:1" />
    <path
       sodipodi:nodetypes="cssssssscsssc"
       inkscape:connector-curvature="0"
       id="path900"
       d="m 326.09091,141.1894 c 0,0 -9.42838,-5.06055 -16.19748,-4.14045 -6.81127,0.92584 -27.69657,7.49067 -24.90062,43.01466 2.55581,32.47284 23.9336,35.42384 29.25218,33.81367 11.6788,-3.5357 10.57041,-9.4816 13.29644,-7.59082 2.176,1.50927 0.20072,8.08907 5.31858,7.59082 8.63855,-0.84102 21.99957,-4.37047 24.17536,-8.74095 3.44021,-6.91032 -2.30454,-7.36994 -3.86806,-12.65137 -1.72866,-5.83927 -0.72526,-71.30773 -0.72526,-71.30773 0,0 1.33827,-14.83934 -6.28559,-12.42134 -13.77995,4.37047 -25.66091,6.4544 -26.83465,14.26154 -0.64043,4.25989 7.31108,3.19432 7.73612,9.66105 0.51614,7.85272 -0.96702,8.51092 -0.96702,8.51092 z"
       style="fill:#e9d5c4;fill-opacity:1;stroke:#d9ac8d;stroke-width:3.76834488;stroke-linecap:square;stroke-linejoin:miter;stroke-miterlimit:4;stroke-dasharray:none;stroke-opacity:1" />
    <path
       sodipodi:nodetypes="sssssscscsss"
       inkscape:connector-curvature="0"
       id="path902"
       d="m 381.05903,176.50161 c 1.41369,-3.72636 25.06064,1.79648 29.49393,-0.69007 3.25983,-1.82838 5.31858,-4.83052 5.07683,-9.66105 -0.24176,-4.83052 -2.17578,-21.16229 -17.40626,-27.83301 -15.23047,-6.67073 -31.72226,4.75418 -35.77952,12.88139 -4.59332,9.201 -6.52734,18.17197 -5.56033,31.05337 1.32905,17.70411 20.3073,27.60299 20.3073,27.60299 0,0 15.23047,5.98065 26.35113,-2.7603 11.12066,-8.74095 9.18664,-15.41167 9.18664,-15.41167 0,0 0.0559,-6.19567 -3.62631,-6.21067 -5.37225,-0.0219 -7.00414,10.69957 -20.54905,5.75062 -5.72434,-2.09152 -8.5621,-11.90712 -7.49436,-14.7216 z"
       style="fill:#e9d5c4;fill-opacity:1;stroke:#d9ac8d;stroke-width:3.76834488;stroke-linecap:square;stroke-linejoin:miter;stroke-miterlimit:4;stroke-dasharray:none;stroke-opacity:1" />
  </g>
  <text
     xml:space="preserve"
     style="font-style:normal;font-weight:normal;font-size:40px;line-height:1.25;font-family:sans-serif;letter-spacing:0px;word-spacing:0px;fill:#000000;fill-opacity:1;stroke:none"
     x="118.08683"
     y="238.4817"
     id="text906"><tspan
       sodipodi:role="line"
       id="tspan904"
       x="118.08683"
       y="274.97491"></tspan></text>
  <rect
     style="opacity:0;fill:#803300;fill-opacity:1;stroke:#d9ac8d;stroke-width:3.99499989;stroke-linecap:square;stroke-linejoin:miter;stroke-miterlimit:4;stroke-dasharray:none;stroke-dashoffset:0;stroke-opacity:1;paint-order:normal"
     id="rect943"
     width="582.65594"
     height="202.23253"
     x="2.1213202"
     y="8.6720133" />
  <rect
     style="opacity:0;fill:#803300;fill-opacity:1;stroke:#d9ac8d;stroke-width:3.99499989;stroke-linecap:square;stroke-linejoin:miter;stroke-miterlimit:4;stroke-dasharray:none;stroke-dashoffset:0;stroke-opacity:1;paint-order:normal"
     id="rect945"
     width="118.79394"
     height="112.42998"
     x="24.748737"
     y="28.471003" />
</svg>
